<?xml version="1.0" encoding="UTF-8"?>
<svg xmlns="http://www.w3.org/2000/svg" viewBox="0 0 1200 900" role="img" aria-labelledby="ant-colony-title">
  <title id="ant-colony-title">ant-colony</title>
  <defs>
    <linearGradient id="ant-colony-bg" x1="0%" y1="0%" x2="100%" y2="100%">
      <stop offset="0%" stop-color="#ecfeff" />
      <stop offset="100%" stop-color="#dcfce7" />
    </linearGradient>
    <linearGradient id="ant-colony-floor" x1="0%" y1="0%" x2="0%" y2="100%">
      <stop offset="0%" stop-color="#d1fae5" />
      <stop offset="100%" stop-color="#ffffff" />
    </linearGradient>
    <radialGradient id="ant-colony-sun" cx="50%" cy="22%" r="58%">
      <stop offset="0%" stop-color="#ffffff" stop-opacity="0.95" />
      <stop offset="100%" stop-color="#ffffff" stop-opacity="0" />
    </radialGradient>
    <filter id="ant-colony-shadow" x="-20%" y="-20%" width="140%" height="160%">
      <feDropShadow dx="0" dy="14" stdDeviation="18" flood-color="#0f172a" flood-opacity="0.14" />
    </filter>
    <filter id="ant-colony-soft" x="-20%" y="-20%" width="140%" height="160%">
      <feDropShadow dx="0" dy="8" stdDeviation="10" flood-color="#ffffff" flood-opacity="0.2" />
    </filter>
  </defs>
  <rect width="1200" height="900" rx="48" fill="url(#ant-colony-bg)" />
  <rect width="1200" height="900" rx="48" fill="url(#ant-colony-sun)" opacity="0.72" />
  <circle cx="150" cy="132" r="94" fill="#ffffff" opacity="0.22" />
  <circle cx="1042" cy="126" r="126" fill="#ffffff" opacity="0.18" />
  <path d="M0 650 C132 614 258 604 390 618 C498 630 578 654 678 654 C796 654 886 616 1012 612 C1090 610 1148 624 1200 650 V900 H0 Z" fill="#ffffff" opacity="0.12" />
  <path d="M0 742 C180 700 358 684 540 706 S908 756 1200 736 V900 H0 Z" fill="url(#ant-colony-floor)" opacity="0.98" />
  <path d="M0 748 C220 724 362 710 546 722 C742 734 920 746 1200 732" stroke="#ffffff" stroke-opacity="0.34" stroke-width="10" fill="none" />
  <ellipse cx="600" cy="740" rx="320" ry="54" fill="#0f172a" opacity="0.08" />
  <g filter="url(#ant-colony-shadow)">
  <path d="M446 690 C454 578 520 496 600 496 C680 496 746 578 754 690 Z" fill="#059669" opacity="0.3" />
  <path d="M318 670 C410 590 510 552 600 552 C690 552 794 590 882 670" stroke="#052e16" stroke-width="18" fill="none" stroke-linecap="round" />
  
  <circle cx="384" cy="600" r="26" fill="#052e16" />
  <circle cx="350" cy="592" r="18" fill="#052e16" />
  <circle cx="418" cy="592" r="18" fill="#052e16" />
  <circle cx="466" cy="620" r="26" fill="#052e16" />
  <circle cx="432" cy="612" r="18" fill="#052e16" />
  <circle cx="500" cy="612" r="18" fill="#052e16" />
  <circle cx="546" cy="600" r="26" fill="#052e16" />
  <circle cx="512" cy="592" r="18" fill="#052e16" />
  <circle cx="580" cy="592" r="18" fill="#052e16" />
  <circle cx="630" cy="620" r="26" fill="#052e16" />
  <circle cx="596" cy="612" r="18" fill="#052e16" />
  <circle cx="664" cy="612" r="18" fill="#052e16" />
  <circle cx="714" cy="600" r="26" fill="#052e16" />
  <circle cx="680" cy="592" r="18" fill="#052e16" />
  <circle cx="748" cy="592" r="18" fill="#052e16" />
  <circle cx="798" cy="620" r="26" fill="#052e16" />
  <circle cx="764" cy="612" r="18" fill="#052e16" />
  <circle cx="832" cy="612" r="18" fill="#052e16" />
  </g>
</svg>