<?xml version="1.0" encoding="UTF-8"?>
<svg xmlns="http://www.w3.org/2000/svg" viewBox="0 0 1200 900" role="img" aria-labelledby="bacterium-title">
  <title id="bacterium-title">bacterium</title>
  <defs>
    <linearGradient id="bacterium-bg" x1="0%" y1="0%" x2="100%" y2="100%">
      <stop offset="0%" stop-color="#fefce8" />
      <stop offset="100%" stop-color="#dcfce7" />
    </linearGradient>
    <linearGradient id="bacterium-floor" x1="0%" y1="0%" x2="0%" y2="100%">
      <stop offset="0%" stop-color="#d9f99d" />
      <stop offset="100%" stop-color="#fffef5" />
    </linearGradient>
    <radialGradient id="bacterium-sun" cx="50%" cy="22%" r="58%">
      <stop offset="0%" stop-color="#ffffff" stop-opacity="0.95" />
      <stop offset="100%" stop-color="#ffffff" stop-opacity="0" />
    </radialGradient>
    <filter id="bacterium-shadow" x="-20%" y="-20%" width="140%" height="160%">
      <feDropShadow dx="0" dy="14" stdDeviation="18" flood-color="#0f172a" flood-opacity="0.14" />
    </filter>
    <filter id="bacterium-soft" x="-20%" y="-20%" width="140%" height="160%">
      <feDropShadow dx="0" dy="8" stdDeviation="10" flood-color="#ffffff" flood-opacity="0.2" />
    </filter>
  </defs>
  <rect width="1200" height="900" rx="48" fill="url(#bacterium-bg)" />
  <rect width="1200" height="900" rx="48" fill="url(#bacterium-sun)" opacity="0.72" />
  <circle cx="150" cy="132" r="94" fill="#fffef5" opacity="0.22" />
  <circle cx="1042" cy="126" r="126" fill="#fffef5" opacity="0.18" />
  <path d="M0 650 C132 614 258 604 390 618 C498 630 578 654 678 654 C796 654 886 616 1012 612 C1090 610 1148 624 1200 650 V900 H0 Z" fill="#fffef5" opacity="0.12" />
  <path d="M0 742 C180 700 358 684 540 706 S908 756 1200 736 V900 H0 Z" fill="url(#bacterium-floor)" opacity="0.98" />
  <path d="M0 748 C220 724 362 710 546 722 C742 734 920 746 1200 732" stroke="#ffffff" stroke-opacity="0.34" stroke-width="10" fill="none" />
  <ellipse cx="600" cy="740" rx="320" ry="54" fill="#0f172a" opacity="0.08" />
  <g filter="url(#bacterium-shadow)">
  <ellipse cx="600" cy="484" rx="222" ry="118" fill="#34d399" />
  <ellipse cx="600" cy="484" rx="176" ry="72" fill="#fffef5" opacity="0.45" />
  <path d="M388 456 C330 404 306 356 308 286" stroke="#1a2e05" stroke-width="12" stroke-linecap="round" fill="none" />
  <path d="M810 508 C876 552 900 612 900 676" stroke="#1a2e05" stroke-width="12" stroke-linecap="round" fill="none" />
  <circle cx="546" cy="474" r="18" fill="#1a2e05" opacity="0.22" />
  <circle cx="642" cy="506" r="24" fill="#1a2e05" opacity="0.22" />
  </g>
</svg>