<?xml version="1.0" encoding="UTF-8"?>
<svg xmlns="http://www.w3.org/2000/svg" viewBox="0 0 1200 900" role="img" aria-labelledby="black-hole-title">
  <title id="black-hole-title">black-hole</title>
  <defs>
    <linearGradient id="black-hole-bg" x1="0%" y1="0%" x2="100%" y2="100%">
      <stop offset="0%" stop-color="#dbeafe" />
      <stop offset="100%" stop-color="#ddd6fe" />
    </linearGradient>
    <linearGradient id="black-hole-floor" x1="0%" y1="0%" x2="0%" y2="100%">
      <stop offset="0%" stop-color="#c4b5fd" />
      <stop offset="100%" stop-color="#f8fafc" />
    </linearGradient>
    <radialGradient id="black-hole-sun" cx="50%" cy="22%" r="58%">
      <stop offset="0%" stop-color="#ffffff" stop-opacity="0.95" />
      <stop offset="100%" stop-color="#ffffff" stop-opacity="0" />
    </radialGradient>
    <filter id="black-hole-shadow" x="-20%" y="-20%" width="140%" height="160%">
      <feDropShadow dx="0" dy="14" stdDeviation="18" flood-color="#0f172a" flood-opacity="0.14" />
    </filter>
    <filter id="black-hole-soft" x="-20%" y="-20%" width="140%" height="160%">
      <feDropShadow dx="0" dy="8" stdDeviation="10" flood-color="#ffffff" flood-opacity="0.2" />
    </filter>
  </defs>
  <rect width="1200" height="900" rx="48" fill="url(#black-hole-bg)" />
  <rect width="1200" height="900" rx="48" fill="url(#black-hole-sun)" opacity="0.72" />
  <circle cx="150" cy="132" r="94" fill="#f8fafc" opacity="0.22" />
  <circle cx="1042" cy="126" r="126" fill="#f8fafc" opacity="0.18" />
  <path d="M0 650 C132 614 258 604 390 618 C498 630 578 654 678 654 C796 654 886 616 1012 612 C1090 610 1148 624 1200 650 V900 H0 Z" fill="#f8fafc" opacity="0.12" />
  <path d="M0 742 C180 700 358 684 540 706 S908 756 1200 736 V900 H0 Z" fill="url(#black-hole-floor)" opacity="0.98" />
  <path d="M0 748 C220 724 362 710 546 722 C742 734 920 746 1200 732" stroke="#ffffff" stroke-opacity="0.34" stroke-width="10" fill="none" />
  <ellipse cx="600" cy="740" rx="320" ry="54" fill="#0f172a" opacity="0.08" />
  <g filter="url(#black-hole-shadow)">
  <circle cx="600" cy="450" r="80" fill="#1e1b4b" />
  <ellipse cx="600" cy="450" rx="220" ry="60" fill="none" stroke="#f59e0b" stroke-width="16" opacity="0.7" />
  <ellipse cx="600" cy="450" rx="180" ry="48" fill="none" stroke="#f97316" stroke-width="10" opacity="0.5" />
  <ellipse cx="600" cy="450" rx="260" ry="72" fill="none" stroke="#fbbf24" stroke-width="8" opacity="0.3" />
  <circle cx="600" cy="450" r="80" fill="#1e1b4b" />
  <circle cx="600" cy="450" r="60" fill="#020617" />
  </g>
</svg>