<?xml version="1.0" encoding="UTF-8"?>
<svg xmlns="http://www.w3.org/2000/svg" viewBox="0 0 1200 900" role="img" aria-labelledby="blue-whale-title">
  <title id="blue-whale-title">blue-whale</title>
  <defs>
    <linearGradient id="blue-whale-bg" x1="0%" y1="0%" x2="100%" y2="100%">
      <stop offset="0%" stop-color="#ecfeff" />
      <stop offset="100%" stop-color="#dcfce7" />
    </linearGradient>
    <linearGradient id="blue-whale-floor" x1="0%" y1="0%" x2="0%" y2="100%">
      <stop offset="0%" stop-color="#d1fae5" />
      <stop offset="100%" stop-color="#ffffff" />
    </linearGradient>
    <radialGradient id="blue-whale-sun" cx="50%" cy="22%" r="58%">
      <stop offset="0%" stop-color="#ffffff" stop-opacity="0.95" />
      <stop offset="100%" stop-color="#ffffff" stop-opacity="0" />
    </radialGradient>
    <filter id="blue-whale-shadow" x="-20%" y="-20%" width="140%" height="160%">
      <feDropShadow dx="0" dy="14" stdDeviation="18" flood-color="#0f172a" flood-opacity="0.14" />
    </filter>
    <filter id="blue-whale-soft" x="-20%" y="-20%" width="140%" height="160%">
      <feDropShadow dx="0" dy="8" stdDeviation="10" flood-color="#ffffff" flood-opacity="0.2" />
    </filter>
  </defs>
  <rect width="1200" height="900" rx="48" fill="url(#blue-whale-bg)" />
  <rect width="1200" height="900" rx="48" fill="url(#blue-whale-sun)" opacity="0.72" />
  <circle cx="150" cy="132" r="94" fill="#ffffff" opacity="0.22" />
  <circle cx="1042" cy="126" r="126" fill="#ffffff" opacity="0.18" />
  <path d="M0 650 C132 614 258 604 390 618 C498 630 578 654 678 654 C796 654 886 616 1012 612 C1090 610 1148 624 1200 650 V900 H0 Z" fill="#ffffff" opacity="0.12" />
  <path d="M0 742 C180 700 358 684 540 706 S908 756 1200 736 V900 H0 Z" fill="url(#blue-whale-floor)" opacity="0.98" />
  <path d="M0 748 C220 724 362 710 546 722 C742 734 920 746 1200 732" stroke="#ffffff" stroke-opacity="0.34" stroke-width="10" fill="none" />
  <ellipse cx="600" cy="740" rx="320" ry="54" fill="#0f172a" opacity="0.08" />
  <g filter="url(#blue-whale-shadow)">
  <path d="M220 460 C300 360 460 320 620 340 C780 360 920 420 960 500 C940 580 840 620 720 610 C580 600 400 590 300 560 C240 540 210 500 220 460 Z" fill="#3b82f6" />
  <path d="M260 460 C320 390 460 350 600 360 C720 370 820 410 860 470" fill="#60a5fa" opacity="0.4" />
  <circle cx="360" cy="430" r="10" fill="#ffffff" />
  <circle cx="360" cy="432" r="5" fill="#052e16" />
  <path d="M950 490 C1000 450 1040 460 1060 500" stroke="#3b82f6" stroke-width="18" stroke-linecap="round" fill="none" />
  <path d="M950 490 C1000 530 1040 520 1060 480" stroke="#3b82f6" stroke-width="18" stroke-linecap="round" fill="none" />
  <path d="M300 540 C340 560 380 556 400 540" stroke="#60a5fa" stroke-width="8" fill="none" opacity="0.5" />
  <path d="M500 560 C540 576 580 572 600 556" stroke="#60a5fa" stroke-width="8" fill="none" opacity="0.5" />
  </g>
</svg>