<?xml version="1.0" encoding="UTF-8"?>
<svg xmlns="http://www.w3.org/2000/svg" viewBox="0 0 1200 900" role="img" aria-labelledby="city-title">
  <title id="city-title">city</title>
  <defs>
    <linearGradient id="city-bg" x1="0%" y1="0%" x2="100%" y2="100%">
      <stop offset="0%" stop-color="#f8fafc" />
      <stop offset="100%" stop-color="#e2e8f0" />
    </linearGradient>
    <linearGradient id="city-floor" x1="0%" y1="0%" x2="0%" y2="100%">
      <stop offset="0%" stop-color="#cbd5e1" />
      <stop offset="100%" stop-color="#ffffff" />
    </linearGradient>
    <radialGradient id="city-sun" cx="50%" cy="22%" r="58%">
      <stop offset="0%" stop-color="#ffffff" stop-opacity="0.95" />
      <stop offset="100%" stop-color="#ffffff" stop-opacity="0" />
    </radialGradient>
    <filter id="city-shadow" x="-20%" y="-20%" width="140%" height="160%">
      <feDropShadow dx="0" dy="14" stdDeviation="18" flood-color="#0f172a" flood-opacity="0.14" />
    </filter>
    <filter id="city-soft" x="-20%" y="-20%" width="140%" height="160%">
      <feDropShadow dx="0" dy="8" stdDeviation="10" flood-color="#ffffff" flood-opacity="0.2" />
    </filter>
  </defs>
  <rect width="1200" height="900" rx="48" fill="url(#city-bg)" />
  <rect width="1200" height="900" rx="48" fill="url(#city-sun)" opacity="0.72" />
  <circle cx="150" cy="132" r="94" fill="#ffffff" opacity="0.22" />
  <circle cx="1042" cy="126" r="126" fill="#ffffff" opacity="0.18" />
  <path d="M0 650 C132 614 258 604 390 618 C498 630 578 654 678 654 C796 654 886 616 1012 612 C1090 610 1148 624 1200 650 V900 H0 Z" fill="#ffffff" opacity="0.12" />
  <path d="M0 742 C180 700 358 684 540 706 S908 756 1200 736 V900 H0 Z" fill="url(#city-floor)" opacity="0.98" />
  <path d="M0 748 C220 724 362 710 546 722 C742 734 920 746 1200 732" stroke="#ffffff" stroke-opacity="0.34" stroke-width="10" fill="none" />
  <ellipse cx="600" cy="740" rx="320" ry="54" fill="#0f172a" opacity="0.08" />
  <g filter="url(#city-shadow)">
  <path d="M0 724 C120 700 250 688 372 700 C484 710 582 742 668 742 C774 742 842 694 962 688 C1062 684 1130 700 1200 722 V900 H0 Z" fill="#a5b4fc" opacity="0.16" />
  <rect x="264" y="430" width="126" height="250" rx="16" fill="#0f172a" />
  <rect x="404" y="342" width="146" height="338" rx="16" fill="#475569" />
  <rect x="566" y="264" width="126" height="416" rx="16" fill="#64748b" />
  <rect x="708" y="378" width="188" height="302" rx="16" fill="#0f172a" />
  <rect x="300" y="386" width="54" height="44" rx="10" fill="#0f172a" />
  <rect x="444" y="302" width="66" height="40" rx="10" fill="#475569" />
  <rect x="606" y="222" width="46" height="42" rx="10" fill="#64748b" />
  <circle cx="636" cy="196" r="36" fill="#ffffff" opacity="0.94" />
  <rect x="300" y="470" width="18" height="18" rx="4" fill="#ffffff" opacity="0.75" /><rect x="334" y="470" width="18" height="18" rx="4" fill="#ffffff" opacity="0.75" />
  <rect x="300" y="512" width="18" height="18" rx="4" fill="#ffffff" opacity="0.75" /><rect x="334" y="512" width="18" height="18" rx="4" fill="#ffffff" opacity="0.75" />
  <rect x="444" y="404" width="18" height="18" rx="4" fill="#ffffff" opacity="0.72" /><rect x="482" y="404" width="18" height="18" rx="4" fill="#ffffff" opacity="0.72" /><rect x="520" y="404" width="18" height="18" rx="4" fill="#ffffff" opacity="0.72" />
  <rect x="444" y="446" width="18" height="18" rx="4" fill="#ffffff" opacity="0.72" /><rect x="482" y="446" width="18" height="18" rx="4" fill="#ffffff" opacity="0.72" /><rect x="520" y="446" width="18" height="18" rx="4" fill="#ffffff" opacity="0.72" />
  <rect x="598" y="330" width="18" height="18" rx="4" fill="#ffffff" opacity="0.7" /><rect x="636" y="330" width="18" height="18" rx="4" fill="#ffffff" opacity="0.7" />
  <rect x="598" y="372" width="18" height="18" rx="4" fill="#ffffff" opacity="0.7" /><rect x="636" y="372" width="18" height="18" rx="4" fill="#ffffff" opacity="0.7" />
  <rect x="756" y="438" width="20" height="20" rx="4" fill="#ffffff" opacity="0.74" /><rect x="798" y="438" width="20" height="20" rx="4" fill="#ffffff" opacity="0.74" /><rect x="840" y="438" width="20" height="20" rx="4" fill="#ffffff" opacity="0.74" />
  <rect x="756" y="484" width="20" height="20" rx="4" fill="#ffffff" opacity="0.74" /><rect x="798" y="484" width="20" height="20" rx="4" fill="#ffffff" opacity="0.74" /><rect x="840" y="484" width="20" height="20" rx="4" fill="#ffffff" opacity="0.74" />
  <path d="M248 686 H922" stroke="#94a3b8" stroke-width="12" stroke-linecap="round" opacity="0.4" />
  <path d="M258 706 C340 694 430 702 514 706 C604 710 710 708 892 698" stroke="#64748b" stroke-width="10" stroke-linecap="round" opacity="0.28" />
  </g>
</svg>