<?xml version="1.0" encoding="UTF-8"?>
<svg xmlns="http://www.w3.org/2000/svg" viewBox="0 0 1200 900" role="img" aria-labelledby="coral-polyp-title">
  <title id="coral-polyp-title">coral-polyp</title>
  <defs>
    <linearGradient id="coral-polyp-bg" x1="0%" y1="0%" x2="100%" y2="100%">
      <stop offset="0%" stop-color="#ecfeff" />
      <stop offset="100%" stop-color="#dcfce7" />
    </linearGradient>
    <linearGradient id="coral-polyp-floor" x1="0%" y1="0%" x2="0%" y2="100%">
      <stop offset="0%" stop-color="#d1fae5" />
      <stop offset="100%" stop-color="#ffffff" />
    </linearGradient>
    <radialGradient id="coral-polyp-sun" cx="50%" cy="22%" r="58%">
      <stop offset="0%" stop-color="#ffffff" stop-opacity="0.95" />
      <stop offset="100%" stop-color="#ffffff" stop-opacity="0" />
    </radialGradient>
    <filter id="coral-polyp-shadow" x="-20%" y="-20%" width="140%" height="160%">
      <feDropShadow dx="0" dy="14" stdDeviation="18" flood-color="#0f172a" flood-opacity="0.14" />
    </filter>
    <filter id="coral-polyp-soft" x="-20%" y="-20%" width="140%" height="160%">
      <feDropShadow dx="0" dy="8" stdDeviation="10" flood-color="#ffffff" flood-opacity="0.2" />
    </filter>
  </defs>
  <rect width="1200" height="900" rx="48" fill="url(#coral-polyp-bg)" />
  <rect width="1200" height="900" rx="48" fill="url(#coral-polyp-sun)" opacity="0.72" />
  <circle cx="150" cy="132" r="94" fill="#ffffff" opacity="0.22" />
  <circle cx="1042" cy="126" r="126" fill="#ffffff" opacity="0.18" />
  <path d="M0 650 C132 614 258 604 390 618 C498 630 578 654 678 654 C796 654 886 616 1012 612 C1090 610 1148 624 1200 650 V900 H0 Z" fill="#ffffff" opacity="0.12" />
  <path d="M0 742 C180 700 358 684 540 706 S908 756 1200 736 V900 H0 Z" fill="url(#coral-polyp-floor)" opacity="0.98" />
  <path d="M0 748 C220 724 362 710 546 722 C742 734 920 746 1200 732" stroke="#ffffff" stroke-opacity="0.34" stroke-width="10" fill="none" />
  <ellipse cx="600" cy="740" rx="320" ry="54" fill="#0f172a" opacity="0.08" />
  <g filter="url(#coral-polyp-shadow)">
  <path d="M420 718 C474 688 528 660 600 650 C672 660 726 688 780 718" stroke="#0ea5e9" stroke-width="14" stroke-linecap="round" fill="none" opacity="0.42" />
  <path d="M600 680 C590 620 590 556 600 468" stroke="#f97316" stroke-width="22" stroke-linecap="round" fill="none" />
  <ellipse cx="600" cy="406" rx="82" ry="68" fill="#fb923c" />
  <path d="M600 344 C578 286 566 236 562 190" stroke="#fb923c" stroke-width="14" stroke-linecap="round" />
  <path d="M646 360 C702 322 744 276 782 224" stroke="#fb923c" stroke-width="14" stroke-linecap="round" />
  <path d="M554 360 C498 322 456 278 418 228" stroke="#fb923c" stroke-width="14" stroke-linecap="round" />
  <path d="M664 414 C734 414 792 400 846 368" stroke="#fb923c" stroke-width="14" stroke-linecap="round" />
  <path d="M536 414 C466 414 408 400 354 368" stroke="#fb923c" stroke-width="14" stroke-linecap="round" />
  <path d="M650 456 C710 478 756 514 792 558" stroke="#fb923c" stroke-width="14" stroke-linecap="round" />
  <path d="M550 456 C490 478 444 514 408 558" stroke="#fb923c" stroke-width="14" stroke-linecap="round" />
  <circle cx="600" cy="404" r="24" fill="#fdba74" opacity="0.85" />
  </g>
</svg>