<?xml version="1.0" encoding="UTF-8"?>
<svg xmlns="http://www.w3.org/2000/svg" viewBox="0 0 1200 900" role="img" aria-labelledby="corporation-title">
  <title id="corporation-title">corporation</title>
  <defs>
    <linearGradient id="corporation-bg" x1="0%" y1="0%" x2="100%" y2="100%">
      <stop offset="0%" stop-color="#f8fafc" />
      <stop offset="100%" stop-color="#e2e8f0" />
    </linearGradient>
    <linearGradient id="corporation-floor" x1="0%" y1="0%" x2="0%" y2="100%">
      <stop offset="0%" stop-color="#cbd5e1" />
      <stop offset="100%" stop-color="#ffffff" />
    </linearGradient>
    <radialGradient id="corporation-sun" cx="50%" cy="22%" r="58%">
      <stop offset="0%" stop-color="#ffffff" stop-opacity="0.95" />
      <stop offset="100%" stop-color="#ffffff" stop-opacity="0" />
    </radialGradient>
    <filter id="corporation-shadow" x="-20%" y="-20%" width="140%" height="160%">
      <feDropShadow dx="0" dy="14" stdDeviation="18" flood-color="#0f172a" flood-opacity="0.14" />
    </filter>
    <filter id="corporation-soft" x="-20%" y="-20%" width="140%" height="160%">
      <feDropShadow dx="0" dy="8" stdDeviation="10" flood-color="#ffffff" flood-opacity="0.2" />
    </filter>
  </defs>
  <rect width="1200" height="900" rx="48" fill="url(#corporation-bg)" />
  <rect width="1200" height="900" rx="48" fill="url(#corporation-sun)" opacity="0.72" />
  <circle cx="150" cy="132" r="94" fill="#ffffff" opacity="0.22" />
  <circle cx="1042" cy="126" r="126" fill="#ffffff" opacity="0.18" />
  <path d="M0 650 C132 614 258 604 390 618 C498 630 578 654 678 654 C796 654 886 616 1012 612 C1090 610 1148 624 1200 650 V900 H0 Z" fill="#ffffff" opacity="0.12" />
  <path d="M0 742 C180 700 358 684 540 706 S908 756 1200 736 V900 H0 Z" fill="url(#corporation-floor)" opacity="0.98" />
  <path d="M0 748 C220 724 362 710 546 722 C742 734 920 746 1200 732" stroke="#ffffff" stroke-opacity="0.34" stroke-width="10" fill="none" />
  <ellipse cx="600" cy="740" rx="320" ry="54" fill="#0f172a" opacity="0.08" />
  <g filter="url(#corporation-shadow)">
  <rect x="382" y="250" width="436" height="420" rx="28" fill="#e2e8f0" stroke="#0f172a" stroke-width="16" />
  <rect x="430" y="214" width="338" height="48" rx="18" fill="#ffffff" opacity="0.9" />
  <rect x="470" y="226" width="124" height="22" rx="11" fill="#334155" opacity="0.22" />
  <rect x="320" y="670" width="560" height="34" rx="17" fill="#94a3b8" opacity="0.32" />
  
  <rect x="456" y="320" width="70" height="70" rx="12" fill="#ffffff" />
  <rect x="456" y="432" width="70" height="70" rx="12" fill="#ffffff" />
  <rect x="572" y="320" width="70" height="70" rx="12" fill="#ffffff" />
  <rect x="572" y="432" width="70" height="70" rx="12" fill="#ffffff" />
  <rect x="688" y="320" width="70" height="70" rx="12" fill="#ffffff" />
  <rect x="688" y="432" width="70" height="70" rx="12" fill="#ffffff" />
  <rect x="550" y="560" width="100" height="110" rx="12" fill="#cbd5e1" />
  <rect x="590" y="226" width="128" height="22" rx="11" fill="#334155" opacity="0.12" />
  </g>
</svg>