<?xml version="1.0" encoding="UTF-8"?>
<svg xmlns="http://www.w3.org/2000/svg" viewBox="0 0 1200 900" role="img" aria-labelledby="crow-title">
  <title id="crow-title">crow</title>
  <defs>
    <linearGradient id="crow-bg" x1="0%" y1="0%" x2="100%" y2="100%">
      <stop offset="0%" stop-color="#ecfeff" />
      <stop offset="100%" stop-color="#dcfce7" />
    </linearGradient>
    <linearGradient id="crow-floor" x1="0%" y1="0%" x2="0%" y2="100%">
      <stop offset="0%" stop-color="#d1fae5" />
      <stop offset="100%" stop-color="#ffffff" />
    </linearGradient>
    <radialGradient id="crow-sun" cx="50%" cy="22%" r="58%">
      <stop offset="0%" stop-color="#ffffff" stop-opacity="0.95" />
      <stop offset="100%" stop-color="#ffffff" stop-opacity="0" />
    </radialGradient>
    <filter id="crow-shadow" x="-20%" y="-20%" width="140%" height="160%">
      <feDropShadow dx="0" dy="14" stdDeviation="18" flood-color="#0f172a" flood-opacity="0.14" />
    </filter>
    <filter id="crow-soft" x="-20%" y="-20%" width="140%" height="160%">
      <feDropShadow dx="0" dy="8" stdDeviation="10" flood-color="#ffffff" flood-opacity="0.2" />
    </filter>
  </defs>
  <rect width="1200" height="900" rx="48" fill="url(#crow-bg)" />
  <rect width="1200" height="900" rx="48" fill="url(#crow-sun)" opacity="0.72" />
  <circle cx="150" cy="132" r="94" fill="#ffffff" opacity="0.22" />
  <circle cx="1042" cy="126" r="126" fill="#ffffff" opacity="0.18" />
  <path d="M0 650 C132 614 258 604 390 618 C498 630 578 654 678 654 C796 654 886 616 1012 612 C1090 610 1148 624 1200 650 V900 H0 Z" fill="#ffffff" opacity="0.12" />
  <path d="M0 742 C180 700 358 684 540 706 S908 756 1200 736 V900 H0 Z" fill="url(#crow-floor)" opacity="0.98" />
  <path d="M0 748 C220 724 362 710 546 722 C742 734 920 746 1200 732" stroke="#ffffff" stroke-opacity="0.34" stroke-width="10" fill="none" />
  <ellipse cx="600" cy="740" rx="320" ry="54" fill="#0f172a" opacity="0.08" />
  <g filter="url(#crow-shadow)">
  <path d="M336 560 C434 448 580 408 738 432 C704 470 694 520 700 568 C640 592 562 608 488 610 C422 610 372 594 336 560 Z" fill="#052e16" />
  <path d="M706 446 C774 426 840 426 902 450 C858 484 812 500 764 498 Z" fill="#059669" opacity="0.9" />
  <path d="M418 520 C472 460 544 430 612 432 C560 478 536 540 536 606 C490 602 450 584 418 520 Z" fill="#0f172a" opacity="0.72" />
  <circle cx="650" cy="462" r="10" fill="#ffffff" />
  <circle cx="650" cy="462" r="4" fill="#052e16" />
  <path d="M470 610 L442 738" stroke="#052e16" stroke-width="16" stroke-linecap="round" />
  <path d="M540 616 L530 738" stroke="#052e16" stroke-width="16" stroke-linecap="round" />
  <path d="M308 690 H916" stroke="#94a3b8" stroke-width="12" stroke-linecap="round" opacity="0.36" />
  </g>
</svg>