<?xml version="1.0" encoding="UTF-8"?>
<svg xmlns="http://www.w3.org/2000/svg" viewBox="0 0 1200 900" role="img" aria-labelledby="dog-title">
  <title id="dog-title">dog</title>
  <defs>
    <linearGradient id="dog-bg" x1="0%" y1="0%" x2="100%" y2="100%">
      <stop offset="0%" stop-color="#ecfeff" />
      <stop offset="100%" stop-color="#dcfce7" />
    </linearGradient>
    <linearGradient id="dog-floor" x1="0%" y1="0%" x2="0%" y2="100%">
      <stop offset="0%" stop-color="#d1fae5" />
      <stop offset="100%" stop-color="#ffffff" />
    </linearGradient>
    <radialGradient id="dog-sun" cx="50%" cy="22%" r="58%">
      <stop offset="0%" stop-color="#ffffff" stop-opacity="0.95" />
      <stop offset="100%" stop-color="#ffffff" stop-opacity="0" />
    </radialGradient>
    <filter id="dog-shadow" x="-20%" y="-20%" width="140%" height="160%">
      <feDropShadow dx="0" dy="14" stdDeviation="18" flood-color="#0f172a" flood-opacity="0.14" />
    </filter>
    <filter id="dog-soft" x="-20%" y="-20%" width="140%" height="160%">
      <feDropShadow dx="0" dy="8" stdDeviation="10" flood-color="#ffffff" flood-opacity="0.2" />
    </filter>
  </defs>
  <rect width="1200" height="900" rx="48" fill="url(#dog-bg)" />
  <rect width="1200" height="900" rx="48" fill="url(#dog-sun)" opacity="0.72" />
  <circle cx="150" cy="132" r="94" fill="#ffffff" opacity="0.22" />
  <circle cx="1042" cy="126" r="126" fill="#ffffff" opacity="0.18" />
  <path d="M0 650 C132 614 258 604 390 618 C498 630 578 654 678 654 C796 654 886 616 1012 612 C1090 610 1148 624 1200 650 V900 H0 Z" fill="#ffffff" opacity="0.12" />
  <path d="M0 742 C180 700 358 684 540 706 S908 756 1200 736 V900 H0 Z" fill="url(#dog-floor)" opacity="0.98" />
  <path d="M0 748 C220 724 362 710 546 722 C742 734 920 746 1200 732" stroke="#ffffff" stroke-opacity="0.34" stroke-width="10" fill="none" />
  <ellipse cx="600" cy="740" rx="320" ry="54" fill="#0f172a" opacity="0.08" />
  <g filter="url(#dog-shadow)">
  <ellipse cx="600" cy="480" rx="140" ry="110" fill="#059669" />
  <circle cx="600" cy="340" r="90" fill="#059669" />
  <path d="M528 280 L488 196 L548 264" fill="#052e16" />
  <path d="M672 280 L712 196 L652 264" fill="#052e16" />
  <circle cx="570" cy="330" r="12" fill="#ffffff" />
  <circle cx="630" cy="330" r="12" fill="#ffffff" />
  <circle cx="570" cy="332" r="6" fill="#052e16" />
  <circle cx="630" cy="332" r="6" fill="#052e16" />
  <ellipse cx="600" cy="374" rx="18" ry="14" fill="#052e16" />
  <path d="M600 388 C600 408 584 418 576 408" stroke="#052e16" stroke-width="6" fill="none" stroke-linecap="round" />
  <path d="M600 388 C600 408 616 418 624 408" stroke="#052e16" stroke-width="6" fill="none" stroke-linecap="round" />
  <path d="M484 556 L456 738" stroke="#052e16" stroke-width="22" stroke-linecap="round" />
  <path d="M716 556 L744 738" stroke="#052e16" stroke-width="22" stroke-linecap="round" />
  <path d="M548 572 L530 738" stroke="#052e16" stroke-width="22" stroke-linecap="round" />
  <path d="M652 572 L670 738" stroke="#052e16" stroke-width="22" stroke-linecap="round" />
  <path d="M740 480 C782 460 820 476 838 510" stroke="#059669" stroke-width="18" stroke-linecap="round" fill="none" />
  </g>
</svg>