<?xml version="1.0" encoding="UTF-8"?>
<svg xmlns="http://www.w3.org/2000/svg" viewBox="0 0 1200 900" role="img" aria-labelledby="dolphin-title">
  <title id="dolphin-title">dolphin</title>
  <defs>
    <linearGradient id="dolphin-bg" x1="0%" y1="0%" x2="100%" y2="100%">
      <stop offset="0%" stop-color="#ecfeff" />
      <stop offset="100%" stop-color="#dcfce7" />
    </linearGradient>
    <linearGradient id="dolphin-floor" x1="0%" y1="0%" x2="0%" y2="100%">
      <stop offset="0%" stop-color="#d1fae5" />
      <stop offset="100%" stop-color="#ffffff" />
    </linearGradient>
    <radialGradient id="dolphin-sun" cx="50%" cy="22%" r="58%">
      <stop offset="0%" stop-color="#ffffff" stop-opacity="0.95" />
      <stop offset="100%" stop-color="#ffffff" stop-opacity="0" />
    </radialGradient>
    <filter id="dolphin-shadow" x="-20%" y="-20%" width="140%" height="160%">
      <feDropShadow dx="0" dy="14" stdDeviation="18" flood-color="#0f172a" flood-opacity="0.14" />
    </filter>
    <filter id="dolphin-soft" x="-20%" y="-20%" width="140%" height="160%">
      <feDropShadow dx="0" dy="8" stdDeviation="10" flood-color="#ffffff" flood-opacity="0.2" />
    </filter>
  </defs>
  <rect width="1200" height="900" rx="48" fill="url(#dolphin-bg)" />
  <rect width="1200" height="900" rx="48" fill="url(#dolphin-sun)" opacity="0.72" />
  <circle cx="150" cy="132" r="94" fill="#ffffff" opacity="0.22" />
  <circle cx="1042" cy="126" r="126" fill="#ffffff" opacity="0.18" />
  <path d="M0 650 C132 614 258 604 390 618 C498 630 578 654 678 654 C796 654 886 616 1012 612 C1090 610 1148 624 1200 650 V900 H0 Z" fill="#ffffff" opacity="0.12" />
  <path d="M0 742 C180 700 358 684 540 706 S908 756 1200 736 V900 H0 Z" fill="url(#dolphin-floor)" opacity="0.98" />
  <path d="M0 748 C220 724 362 710 546 722 C742 734 920 746 1200 732" stroke="#ffffff" stroke-opacity="0.34" stroke-width="10" fill="none" />
  <ellipse cx="600" cy="740" rx="320" ry="54" fill="#0f172a" opacity="0.08" />
  <g filter="url(#dolphin-shadow)">
  <path d="M320 480 C380 380 500 340 620 360 C740 380 840 440 880 520 C860 580 780 600 700 580 C620 560 520 560 440 580 C380 600 340 560 320 480 Z" fill="#059669" />
  <path d="M340 470 C380 400 480 360 600 370 C700 380 780 420 820 480" fill="#4ade80" opacity="0.2" />
  <circle cx="420" cy="440" r="10" fill="#ffffff" />
  <circle cx="420" cy="442" r="5" fill="#052e16" />
  <path d="M330 470 C310 430 280 420 260 430" stroke="#059669" stroke-width="14" stroke-linecap="round" fill="none" />
  <path d="M560 356 C540 290 570 240 620 220" stroke="#059669" stroke-width="16" stroke-linecap="round" fill="none" />
  <path d="M870 510 C910 480 940 500 950 540" stroke="#059669" stroke-width="14" stroke-linecap="round" fill="none" />
  <path d="M870 510 C910 540 940 520 950 480" stroke="#059669" stroke-width="14" stroke-linecap="round" fill="none" />
  </g>
</svg>