<?xml version="1.0" encoding="UTF-8"?>
<svg xmlns="http://www.w3.org/2000/svg" viewBox="0 0 1200 900" role="img" aria-labelledby="earth-title">
  <title id="earth-title">earth</title>
  <defs>
    <linearGradient id="earth-bg" x1="0%" y1="0%" x2="100%" y2="100%">
      <stop offset="0%" stop-color="#dbeafe" />
      <stop offset="100%" stop-color="#ddd6fe" />
    </linearGradient>
    <linearGradient id="earth-floor" x1="0%" y1="0%" x2="0%" y2="100%">
      <stop offset="0%" stop-color="#c4b5fd" />
      <stop offset="100%" stop-color="#f8fafc" />
    </linearGradient>
    <radialGradient id="earth-sun" cx="50%" cy="22%" r="58%">
      <stop offset="0%" stop-color="#ffffff" stop-opacity="0.95" />
      <stop offset="100%" stop-color="#ffffff" stop-opacity="0" />
    </radialGradient>
    <filter id="earth-shadow" x="-20%" y="-20%" width="140%" height="160%">
      <feDropShadow dx="0" dy="14" stdDeviation="18" flood-color="#0f172a" flood-opacity="0.14" />
    </filter>
    <filter id="earth-soft" x="-20%" y="-20%" width="140%" height="160%">
      <feDropShadow dx="0" dy="8" stdDeviation="10" flood-color="#ffffff" flood-opacity="0.2" />
    </filter>
  </defs>
  <rect width="1200" height="900" rx="48" fill="url(#earth-bg)" />
  <rect width="1200" height="900" rx="48" fill="url(#earth-sun)" opacity="0.72" />
  <circle cx="150" cy="132" r="94" fill="#f8fafc" opacity="0.22" />
  <circle cx="1042" cy="126" r="126" fill="#f8fafc" opacity="0.18" />
  <path d="M0 650 C132 614 258 604 390 618 C498 630 578 654 678 654 C796 654 886 616 1012 612 C1090 610 1148 624 1200 650 V900 H0 Z" fill="#f8fafc" opacity="0.12" />
  <path d="M0 742 C180 700 358 684 540 706 S908 756 1200 736 V900 H0 Z" fill="url(#earth-floor)" opacity="0.98" />
  <path d="M0 748 C220 724 362 710 546 722 C742 734 920 746 1200 732" stroke="#ffffff" stroke-opacity="0.34" stroke-width="10" fill="none" />
  <ellipse cx="600" cy="740" rx="320" ry="54" fill="#0f172a" opacity="0.08" />
  <g filter="url(#earth-shadow)">
  <circle cx="600" cy="452" r="216" fill="#60a5fa" />
  <path d="M492 294 C548 286 590 318 614 356 C658 344 708 354 748 398 C712 454 664 488 616 504 C598 560 544 606 478 610 C424 566 398 512 402 450 C434 410 454 346 492 294 Z" fill="#16a34a" opacity="0.96" />
  <circle cx="600" cy="452" r="216" fill="none" stroke="#f8fafc" stroke-width="12" opacity="0.7" />
  </g>
</svg>