<?xml version="1.0" encoding="UTF-8"?>
<svg xmlns="http://www.w3.org/2000/svg" viewBox="0 0 1200 900" role="img" aria-labelledby="ecosystem-title">
  <title id="ecosystem-title">ecosystem</title>
  <defs>
    <linearGradient id="ecosystem-bg" x1="0%" y1="0%" x2="100%" y2="100%">
      <stop offset="0%" stop-color="#f8fafc" />
      <stop offset="100%" stop-color="#e2e8f0" />
    </linearGradient>
    <linearGradient id="ecosystem-floor" x1="0%" y1="0%" x2="0%" y2="100%">
      <stop offset="0%" stop-color="#cbd5e1" />
      <stop offset="100%" stop-color="#ffffff" />
    </linearGradient>
    <radialGradient id="ecosystem-sun" cx="50%" cy="22%" r="58%">
      <stop offset="0%" stop-color="#ffffff" stop-opacity="0.95" />
      <stop offset="100%" stop-color="#ffffff" stop-opacity="0" />
    </radialGradient>
    <filter id="ecosystem-shadow" x="-20%" y="-20%" width="140%" height="160%">
      <feDropShadow dx="0" dy="14" stdDeviation="18" flood-color="#0f172a" flood-opacity="0.14" />
    </filter>
    <filter id="ecosystem-soft" x="-20%" y="-20%" width="140%" height="160%">
      <feDropShadow dx="0" dy="8" stdDeviation="10" flood-color="#ffffff" flood-opacity="0.2" />
    </filter>
  </defs>
  <rect width="1200" height="900" rx="48" fill="url(#ecosystem-bg)" />
  <rect width="1200" height="900" rx="48" fill="url(#ecosystem-sun)" opacity="0.72" />
  <circle cx="150" cy="132" r="94" fill="#ffffff" opacity="0.22" />
  <circle cx="1042" cy="126" r="126" fill="#ffffff" opacity="0.18" />
  <path d="M0 650 C132 614 258 604 390 618 C498 630 578 654 678 654 C796 654 886 616 1012 612 C1090 610 1148 624 1200 650 V900 H0 Z" fill="#ffffff" opacity="0.12" />
  <path d="M0 742 C180 700 358 684 540 706 S908 756 1200 736 V900 H0 Z" fill="url(#ecosystem-floor)" opacity="0.98" />
  <path d="M0 748 C220 724 362 710 546 722 C742 734 920 746 1200 732" stroke="#ffffff" stroke-opacity="0.34" stroke-width="10" fill="none" />
  <ellipse cx="600" cy="740" rx="320" ry="54" fill="#0f172a" opacity="0.08" />
  <g filter="url(#ecosystem-shadow)">
  <path d="M0 620 C200 580 400 560 600 570 C800 580 1000 600 1200 620 V900 H0 Z" fill="#16a34a" opacity="0.3" />
  <rect x="300" y="380" width="40" height="200" rx="10" fill="#7c2d12" />
  <circle cx="320" cy="340" r="70" fill="#15803d" />
  <circle cx="280" cy="360" r="50" fill="#166534" opacity="0.9" />
  <rect x="700" y="340" width="50" height="240" rx="12" fill="#7c2d12" />
  <circle cx="725" cy="290" r="80" fill="#15803d" />
  <circle cx="680" cy="320" r="56" fill="#166534" opacity="0.9" />
  <rect x="520" y="440" width="30" height="140" rx="8" fill="#92400e" />
  <circle cx="535" cy="410" r="46" fill="#22c55e" />
  <path d="M380 640 C420 620 480 618 540 624 C600 630 660 620 700 610" stroke="#60a5fa" stroke-width="14" stroke-linecap="round" fill="none" opacity="0.6" />
  <circle cx="460" cy="560" r="14" fill="#0f172a" opacity="0.4" />
  <circle cx="480" cy="556" r="10" fill="#0f172a" opacity="0.4" />
  <circle cx="820" cy="550" r="10" fill="#334155" opacity="0.3" />
  <circle cx="840" cy="546" r="7" fill="#334155" opacity="0.3" />
  </g>
</svg>