<?xml version="1.0" encoding="UTF-8"?>
<svg xmlns="http://www.w3.org/2000/svg" viewBox="0 0 1200 900" role="img" aria-labelledby="einstein-title">
  <title id="einstein-title">einstein</title>
  <defs>
    <linearGradient id="einstein-bg" x1="0%" y1="0%" x2="100%" y2="100%">
      <stop offset="0%" stop-color="#fff7ed" />
      <stop offset="100%" stop-color="#fef3c7" />
    </linearGradient>
    <linearGradient id="einstein-floor" x1="0%" y1="0%" x2="0%" y2="100%">
      <stop offset="0%" stop-color="#fde68a" />
      <stop offset="100%" stop-color="#ffffff" />
    </linearGradient>
    <radialGradient id="einstein-sun" cx="50%" cy="22%" r="58%">
      <stop offset="0%" stop-color="#ffffff" stop-opacity="0.95" />
      <stop offset="100%" stop-color="#ffffff" stop-opacity="0" />
    </radialGradient>
    <filter id="einstein-shadow" x="-20%" y="-20%" width="140%" height="160%">
      <feDropShadow dx="0" dy="14" stdDeviation="18" flood-color="#0f172a" flood-opacity="0.14" />
    </filter>
    <filter id="einstein-soft" x="-20%" y="-20%" width="140%" height="160%">
      <feDropShadow dx="0" dy="8" stdDeviation="10" flood-color="#ffffff" flood-opacity="0.2" />
    </filter>
  </defs>
  <rect width="1200" height="900" rx="48" fill="url(#einstein-bg)" />
  <rect width="1200" height="900" rx="48" fill="url(#einstein-sun)" opacity="0.72" />
  <circle cx="150" cy="132" r="94" fill="#ffffff" opacity="0.22" />
  <circle cx="1042" cy="126" r="126" fill="#ffffff" opacity="0.18" />
  <path d="M0 650 C132 614 258 604 390 618 C498 630 578 654 678 654 C796 654 886 616 1012 612 C1090 610 1148 624 1200 650 V900 H0 Z" fill="#ffffff" opacity="0.12" />
  <path d="M0 742 C180 700 358 684 540 706 S908 756 1200 736 V900 H0 Z" fill="url(#einstein-floor)" opacity="0.98" />
  <path d="M0 748 C220 724 362 710 546 722 C742 734 920 746 1200 732" stroke="#ffffff" stroke-opacity="0.34" stroke-width="10" fill="none" />
  <ellipse cx="600" cy="740" rx="320" ry="54" fill="#0f172a" opacity="0.08" />
  <g filter="url(#einstein-shadow)">
  <circle cx="600" cy="310" r="86" fill="#f2c9a5" />
  <path d="M520 270 C510 210 530 170 570 160 C580 140 620 130 650 150 C680 140 710 160 710 190 C730 210 730 250 700 272" fill="#ffffff" stroke="#0f172a" stroke-width="4" />
  <path d="M556 290 L550 310" stroke="#0f172a" stroke-width="5" stroke-linecap="round" />
  <path d="M644 290 L650 310" stroke="#0f172a" stroke-width="5" stroke-linecap="round" />
  <circle cx="564" cy="304" r="8" fill="#0f172a" />
  <circle cx="636" cy="304" r="8" fill="#0f172a" />
  <path d="M576 350 C590 366 610 366 624 350" stroke="#0f172a" stroke-width="5" fill="none" stroke-linecap="round" />
  <path d="M562 356 C546 372 536 390 540 410" stroke="#b45309" stroke-width="8" fill="none" stroke-linecap="round" />
  <rect x="520" y="400" width="160" height="210" rx="56" fill="#475569" />
  <path d="M520 440 L440 580" stroke="#f2c9a5" stroke-width="22" stroke-linecap="round" />
  <path d="M680 440 L760 580" stroke="#f2c9a5" stroke-width="22" stroke-linecap="round" />
  <path d="M566 608 L540 738" stroke="#0f172a" stroke-width="22" stroke-linecap="round" />
  <path d="M634 608 L660 738" stroke="#0f172a" stroke-width="22" stroke-linecap="round" />
  <rect x="760" y="540" width="120" height="80" rx="8" fill="#ffffff" stroke="#b45309" stroke-width="6" />
  <text x="780" y="590" font-family="Arial, Helvetica, sans-serif" font-size="32" fill="#b45309">E=mc²</text>
  </g>
</svg>