<?xml version="1.0" encoding="UTF-8"?>
<svg xmlns="http://www.w3.org/2000/svg" viewBox="0 0 1200 900" role="img" aria-labelledby="elephant-title">
  <title id="elephant-title">elephant</title>
  <defs>
    <linearGradient id="elephant-bg" x1="0%" y1="0%" x2="100%" y2="100%">
      <stop offset="0%" stop-color="#ecfeff" />
      <stop offset="100%" stop-color="#dcfce7" />
    </linearGradient>
    <linearGradient id="elephant-floor" x1="0%" y1="0%" x2="0%" y2="100%">
      <stop offset="0%" stop-color="#d1fae5" />
      <stop offset="100%" stop-color="#ffffff" />
    </linearGradient>
    <radialGradient id="elephant-sun" cx="50%" cy="22%" r="58%">
      <stop offset="0%" stop-color="#ffffff" stop-opacity="0.95" />
      <stop offset="100%" stop-color="#ffffff" stop-opacity="0" />
    </radialGradient>
    <filter id="elephant-shadow" x="-20%" y="-20%" width="140%" height="160%">
      <feDropShadow dx="0" dy="14" stdDeviation="18" flood-color="#0f172a" flood-opacity="0.14" />
    </filter>
    <filter id="elephant-soft" x="-20%" y="-20%" width="140%" height="160%">
      <feDropShadow dx="0" dy="8" stdDeviation="10" flood-color="#ffffff" flood-opacity="0.2" />
    </filter>
  </defs>
  <rect width="1200" height="900" rx="48" fill="url(#elephant-bg)" />
  <rect width="1200" height="900" rx="48" fill="url(#elephant-sun)" opacity="0.72" />
  <circle cx="150" cy="132" r="94" fill="#ffffff" opacity="0.22" />
  <circle cx="1042" cy="126" r="126" fill="#ffffff" opacity="0.18" />
  <path d="M0 650 C132 614 258 604 390 618 C498 630 578 654 678 654 C796 654 886 616 1012 612 C1090 610 1148 624 1200 650 V900 H0 Z" fill="#ffffff" opacity="0.12" />
  <path d="M0 742 C180 700 358 684 540 706 S908 756 1200 736 V900 H0 Z" fill="url(#elephant-floor)" opacity="0.98" />
  <path d="M0 748 C220 724 362 710 546 722 C742 734 920 746 1200 732" stroke="#ffffff" stroke-opacity="0.34" stroke-width="10" fill="none" />
  <ellipse cx="600" cy="740" rx="320" ry="54" fill="#0f172a" opacity="0.08" />
  <g filter="url(#elephant-shadow)">
  <ellipse cx="600" cy="480" rx="200" ry="150" fill="#94a3b8" />
  <circle cx="540" cy="330" r="110" fill="#94a3b8" />
  <circle cx="440" cy="300" r="60" fill="#94a3b8" />
  <circle cx="440" cy="300" r="48" fill="#cbd5e1" opacity="0.4" />
  <circle cx="580" cy="310" r="14" fill="#ffffff" />
  <circle cx="580" cy="312" r="7" fill="#052e16" />
  <path d="M518 390 C496 460 480 540 460 620 C450 660 470 680 498 670 C520 650 530 610 540 560" stroke="#94a3b8" stroke-width="36" stroke-linecap="round" fill="none" />
  <path d="M440 570 L416 738" stroke="#94a3b8" stroke-width="30" stroke-linecap="round" />
  <path d="M560 588 L540 738" stroke="#94a3b8" stroke-width="30" stroke-linecap="round" />
  <path d="M680 570 L700 738" stroke="#94a3b8" stroke-width="30" stroke-linecap="round" />
  <path d="M760 550 L790 738" stroke="#94a3b8" stroke-width="30" stroke-linecap="round" />
  <path d="M510 380 C520 392 540 392 550 380" stroke="#052e16" stroke-width="4" fill="none" />
  </g>
</svg>