<?xml version="1.0" encoding="UTF-8"?>
<svg xmlns="http://www.w3.org/2000/svg" viewBox="0 0 1200 900" role="img" aria-labelledby="fetus-title">
  <title id="fetus-title">fetus</title>
  <defs>
    <linearGradient id="fetus-bg" x1="0%" y1="0%" x2="100%" y2="100%">
      <stop offset="0%" stop-color="#eff6ff" />
      <stop offset="100%" stop-color="#dbeafe" />
    </linearGradient>
    <linearGradient id="fetus-floor" x1="0%" y1="0%" x2="0%" y2="100%">
      <stop offset="0%" stop-color="#dbeafe" />
      <stop offset="100%" stop-color="#ffffff" />
    </linearGradient>
    <radialGradient id="fetus-sun" cx="50%" cy="22%" r="58%">
      <stop offset="0%" stop-color="#ffffff" stop-opacity="0.95" />
      <stop offset="100%" stop-color="#ffffff" stop-opacity="0" />
    </radialGradient>
    <filter id="fetus-shadow" x="-20%" y="-20%" width="140%" height="160%">
      <feDropShadow dx="0" dy="14" stdDeviation="18" flood-color="#0f172a" flood-opacity="0.14" />
    </filter>
    <filter id="fetus-soft" x="-20%" y="-20%" width="140%" height="160%">
      <feDropShadow dx="0" dy="8" stdDeviation="10" flood-color="#ffffff" flood-opacity="0.2" />
    </filter>
  </defs>
  <rect width="1200" height="900" rx="48" fill="url(#fetus-bg)" />
  <rect width="1200" height="900" rx="48" fill="url(#fetus-sun)" opacity="0.72" />
  <circle cx="150" cy="132" r="94" fill="#ffffff" opacity="0.22" />
  <circle cx="1042" cy="126" r="126" fill="#ffffff" opacity="0.18" />
  <path d="M0 650 C132 614 258 604 390 618 C498 630 578 654 678 654 C796 654 886 616 1012 612 C1090 610 1148 624 1200 650 V900 H0 Z" fill="#ffffff" opacity="0.12" />
  <path d="M0 742 C180 700 358 684 540 706 S908 756 1200 736 V900 H0 Z" fill="url(#fetus-floor)" opacity="0.98" />
  <path d="M0 748 C220 724 362 710 546 722 C742 734 920 746 1200 732" stroke="#ffffff" stroke-opacity="0.34" stroke-width="10" fill="none" />
  <ellipse cx="600" cy="740" rx="320" ry="54" fill="#0f172a" opacity="0.08" />
  <g filter="url(#fetus-shadow)">
  <ellipse cx="600" cy="460" rx="180" ry="200" fill="#2563eb" opacity="0.15" />
  <ellipse cx="600" cy="460" rx="150" ry="170" fill="#2563eb" opacity="0.12" />
  <circle cx="560" cy="380" r="56" fill="#f2c9a5" />
  <path d="M540 420 C520 480 530 540 560 580 C580 610 620 620 650 600 C680 570 680 510 660 460" stroke="#f2c9a5" stroke-width="32" fill="none" stroke-linecap="round" />
  <path d="M528 440 C500 460 480 480 476 510" stroke="#f2c9a5" stroke-width="16" stroke-linecap="round" fill="none" />
  <path d="M620 580 C640 610 650 640 644 660" stroke="#f2c9a5" stroke-width="16" stroke-linecap="round" fill="none" />
  <path d="M580 600 C570 630 560 656 548 670" stroke="#f2c9a5" stroke-width="16" stroke-linecap="round" fill="none" />
  </g>
</svg>