<?xml version="1.0" encoding="UTF-8"?>
<svg xmlns="http://www.w3.org/2000/svg" viewBox="0 0 1200 900" role="img" aria-labelledby="frida-kahlo-title">
  <title id="frida-kahlo-title">frida-kahlo</title>
  <defs>
    <linearGradient id="frida-kahlo-bg" x1="0%" y1="0%" x2="100%" y2="100%">
      <stop offset="0%" stop-color="#fff7ed" />
      <stop offset="100%" stop-color="#fef3c7" />
    </linearGradient>
    <linearGradient id="frida-kahlo-floor" x1="0%" y1="0%" x2="0%" y2="100%">
      <stop offset="0%" stop-color="#fde68a" />
      <stop offset="100%" stop-color="#ffffff" />
    </linearGradient>
    <radialGradient id="frida-kahlo-sun" cx="50%" cy="22%" r="58%">
      <stop offset="0%" stop-color="#ffffff" stop-opacity="0.95" />
      <stop offset="100%" stop-color="#ffffff" stop-opacity="0" />
    </radialGradient>
    <filter id="frida-kahlo-shadow" x="-20%" y="-20%" width="140%" height="160%">
      <feDropShadow dx="0" dy="14" stdDeviation="18" flood-color="#0f172a" flood-opacity="0.14" />
    </filter>
    <filter id="frida-kahlo-soft" x="-20%" y="-20%" width="140%" height="160%">
      <feDropShadow dx="0" dy="8" stdDeviation="10" flood-color="#ffffff" flood-opacity="0.2" />
    </filter>
  </defs>
  <rect width="1200" height="900" rx="48" fill="url(#frida-kahlo-bg)" />
  <rect width="1200" height="900" rx="48" fill="url(#frida-kahlo-sun)" opacity="0.72" />
  <circle cx="150" cy="132" r="94" fill="#ffffff" opacity="0.22" />
  <circle cx="1042" cy="126" r="126" fill="#ffffff" opacity="0.18" />
  <path d="M0 650 C132 614 258 604 390 618 C498 630 578 654 678 654 C796 654 886 616 1012 612 C1090 610 1148 624 1200 650 V900 H0 Z" fill="#ffffff" opacity="0.12" />
  <path d="M0 742 C180 700 358 684 540 706 S908 756 1200 736 V900 H0 Z" fill="url(#frida-kahlo-floor)" opacity="0.98" />
  <path d="M0 748 C220 724 362 710 546 722 C742 734 920 746 1200 732" stroke="#ffffff" stroke-opacity="0.34" stroke-width="10" fill="none" />
  <ellipse cx="600" cy="740" rx="320" ry="54" fill="#0f172a" opacity="0.08" />
  <g filter="url(#frida-kahlo-shadow)">
  <circle cx="600" cy="310" r="80" fill="#f2c9a5" />
  <path d="M526 272 C530 224 550 202 590 196 C612 188 640 192 660 204 C686 218 694 244 686 270" fill="#0f172a" />
  <path d="M530 264 C514 258 504 268 510 282" stroke="#0f172a" stroke-width="8" fill="none" />
  <path d="M680 260 C696 254 706 264 700 278" stroke="#0f172a" stroke-width="8" fill="none" />
  <circle cx="528" cy="192" r="14" fill="#ef4444" />
  <circle cx="560" cy="180" r="10" fill="#f97316" />
  <circle cx="544" cy="174" r="8" fill="#facc15" />
  <circle cx="570" cy="192" r="8" fill="#ec4899" />
  <circle cx="572" cy="304" r="7" fill="#0f172a" />
  <circle cx="628" cy="304" r="7" fill="#0f172a" />
  <path d="M564 290 C578 282 622 282 636 290" stroke="#0f172a" stroke-width="5" fill="none" />
  <path d="M584 340 C592 352 608 352 616 340" stroke="#0f172a" stroke-width="4" fill="none" stroke-linecap="round" />
  <path d="M510 396 C510 378 548 362 600 362 C652 362 690 378 690 396 L690 580 C690 608 648 634 600 634 C552 634 510 608 510 580 Z" fill="#b45309" />
  <rect x="530" y="408" width="140" height="24" rx="12" fill="#ffffff" opacity="0.2" />
  <path d="M510 424 L436 560" stroke="#f2c9a5" stroke-width="20" stroke-linecap="round" />
  <path d="M690 424 L764 560" stroke="#f2c9a5" stroke-width="20" stroke-linecap="round" />
  <path d="M560 632 L544 738" stroke="#0f172a" stroke-width="20" stroke-linecap="round" />
  <path d="M640 632 L656 738" stroke="#0f172a" stroke-width="20" stroke-linecap="round" />
  </g>
</svg>