<?xml version="1.0" encoding="UTF-8"?>
<svg xmlns="http://www.w3.org/2000/svg" viewBox="0 0 1200 900" role="img" aria-labelledby="fruit-fly-title">
  <title id="fruit-fly-title">fruit-fly</title>
  <defs>
    <linearGradient id="fruit-fly-bg" x1="0%" y1="0%" x2="100%" y2="100%">
      <stop offset="0%" stop-color="#ecfeff" />
      <stop offset="100%" stop-color="#dcfce7" />
    </linearGradient>
    <linearGradient id="fruit-fly-floor" x1="0%" y1="0%" x2="0%" y2="100%">
      <stop offset="0%" stop-color="#d1fae5" />
      <stop offset="100%" stop-color="#ffffff" />
    </linearGradient>
    <radialGradient id="fruit-fly-sun" cx="50%" cy="22%" r="58%">
      <stop offset="0%" stop-color="#ffffff" stop-opacity="0.95" />
      <stop offset="100%" stop-color="#ffffff" stop-opacity="0" />
    </radialGradient>
    <filter id="fruit-fly-shadow" x="-20%" y="-20%" width="140%" height="160%">
      <feDropShadow dx="0" dy="14" stdDeviation="18" flood-color="#0f172a" flood-opacity="0.14" />
    </filter>
    <filter id="fruit-fly-soft" x="-20%" y="-20%" width="140%" height="160%">
      <feDropShadow dx="0" dy="8" stdDeviation="10" flood-color="#ffffff" flood-opacity="0.2" />
    </filter>
  </defs>
  <rect width="1200" height="900" rx="48" fill="url(#fruit-fly-bg)" />
  <rect width="1200" height="900" rx="48" fill="url(#fruit-fly-sun)" opacity="0.72" />
  <circle cx="150" cy="132" r="94" fill="#ffffff" opacity="0.22" />
  <circle cx="1042" cy="126" r="126" fill="#ffffff" opacity="0.18" />
  <path d="M0 650 C132 614 258 604 390 618 C498 630 578 654 678 654 C796 654 886 616 1012 612 C1090 610 1148 624 1200 650 V900 H0 Z" fill="#ffffff" opacity="0.12" />
  <path d="M0 742 C180 700 358 684 540 706 S908 756 1200 736 V900 H0 Z" fill="url(#fruit-fly-floor)" opacity="0.98" />
  <path d="M0 748 C220 724 362 710 546 722 C742 734 920 746 1200 732" stroke="#ffffff" stroke-opacity="0.34" stroke-width="10" fill="none" />
  <ellipse cx="600" cy="740" rx="320" ry="54" fill="#0f172a" opacity="0.08" />
  <g filter="url(#fruit-fly-shadow)">
  <ellipse cx="600" cy="480" rx="48" ry="60" fill="#059669" />
  <circle cx="600" cy="400" r="32" fill="#059669" />
  <circle cx="584" cy="392" r="14" fill="#ef4444" opacity="0.8" />
  <circle cx="616" cy="392" r="14" fill="#ef4444" opacity="0.8" />
  <ellipse cx="530" cy="420" rx="72" ry="28" fill="#ffffff" opacity="0.65" transform="rotate(-20 530 420)" />
  <ellipse cx="670" cy="420" rx="72" ry="28" fill="#ffffff" opacity="0.65" transform="rotate(20 670 420)" />
  <path d="M588 370 C576 330 560 300 548 280" stroke="#052e16" stroke-width="4" stroke-linecap="round" fill="none" />
  <path d="M612 370 C624 330 640 300 652 280" stroke="#052e16" stroke-width="4" stroke-linecap="round" fill="none" />
  <path d="M570 520 L548 580" stroke="#052e16" stroke-width="5" stroke-linecap="round" />
  <path d="M600 530 L600 590" stroke="#052e16" stroke-width="5" stroke-linecap="round" />
  <path d="M630 520 L652 580" stroke="#052e16" stroke-width="5" stroke-linecap="round" />
  </g>
</svg>