<?xml version="1.0" encoding="UTF-8"?>
<svg xmlns="http://www.w3.org/2000/svg" viewBox="0 0 1200 900" role="img" aria-labelledby="goldfish-title">
  <title id="goldfish-title">goldfish</title>
  <defs>
    <linearGradient id="goldfish-bg" x1="0%" y1="0%" x2="100%" y2="100%">
      <stop offset="0%" stop-color="#ecfeff" />
      <stop offset="100%" stop-color="#dcfce7" />
    </linearGradient>
    <linearGradient id="goldfish-floor" x1="0%" y1="0%" x2="0%" y2="100%">
      <stop offset="0%" stop-color="#d1fae5" />
      <stop offset="100%" stop-color="#ffffff" />
    </linearGradient>
    <radialGradient id="goldfish-sun" cx="50%" cy="22%" r="58%">
      <stop offset="0%" stop-color="#ffffff" stop-opacity="0.95" />
      <stop offset="100%" stop-color="#ffffff" stop-opacity="0" />
    </radialGradient>
    <filter id="goldfish-shadow" x="-20%" y="-20%" width="140%" height="160%">
      <feDropShadow dx="0" dy="14" stdDeviation="18" flood-color="#0f172a" flood-opacity="0.14" />
    </filter>
    <filter id="goldfish-soft" x="-20%" y="-20%" width="140%" height="160%">
      <feDropShadow dx="0" dy="8" stdDeviation="10" flood-color="#ffffff" flood-opacity="0.2" />
    </filter>
  </defs>
  <rect width="1200" height="900" rx="48" fill="url(#goldfish-bg)" />
  <rect width="1200" height="900" rx="48" fill="url(#goldfish-sun)" opacity="0.72" />
  <circle cx="150" cy="132" r="94" fill="#ffffff" opacity="0.22" />
  <circle cx="1042" cy="126" r="126" fill="#ffffff" opacity="0.18" />
  <path d="M0 650 C132 614 258 604 390 618 C498 630 578 654 678 654 C796 654 886 616 1012 612 C1090 610 1148 624 1200 650 V900 H0 Z" fill="#ffffff" opacity="0.12" />
  <path d="M0 742 C180 700 358 684 540 706 S908 756 1200 736 V900 H0 Z" fill="url(#goldfish-floor)" opacity="0.98" />
  <path d="M0 748 C220 724 362 710 546 722 C742 734 920 746 1200 732" stroke="#ffffff" stroke-opacity="0.34" stroke-width="10" fill="none" />
  <ellipse cx="600" cy="740" rx="320" ry="54" fill="#0f172a" opacity="0.08" />
  <g filter="url(#goldfish-shadow)">
  <ellipse cx="600" cy="460" rx="140" ry="100" fill="#f97316" />
  <ellipse cx="600" cy="460" rx="120" ry="80" fill="#fb923c" opacity="0.5" />
  <circle cx="540" cy="440" r="14" fill="#ffffff" />
  <circle cx="540" cy="442" r="7" fill="#052e16" />
  <path d="M740 460 C800 420 840 430 860 470 C840 510 800 500 740 460 Z" fill="#f97316" />
  <path d="M580 370 C610 340 640 340 660 370" stroke="#f97316" stroke-width="14" stroke-linecap="round" fill="none" />
  <path d="M520 480 C540 500 560 500 580 480" stroke="#052e16" stroke-width="5" fill="none" />
  <circle cx="480" cy="460" r="6" fill="#fdba74" opacity="0.6" />
  <circle cx="520" cy="500" r="4" fill="#fdba74" opacity="0.5" />
  </g>
</svg>