<?xml version="1.0" encoding="UTF-8"?>
<svg xmlns="http://www.w3.org/2000/svg" viewBox="0 0 1200 900" role="img" aria-labelledby="humanoid-robot-title">
  <title id="humanoid-robot-title">humanoid-robot</title>
  <defs>
    <linearGradient id="humanoid-robot-bg" x1="0%" y1="0%" x2="100%" y2="100%">
      <stop offset="0%" stop-color="#eff6ff" />
      <stop offset="100%" stop-color="#e0e7ff" />
    </linearGradient>
    <linearGradient id="humanoid-robot-floor" x1="0%" y1="0%" x2="0%" y2="100%">
      <stop offset="0%" stop-color="#c7d2fe" />
      <stop offset="100%" stop-color="#ffffff" />
    </linearGradient>
    <radialGradient id="humanoid-robot-sun" cx="50%" cy="22%" r="58%">
      <stop offset="0%" stop-color="#ffffff" stop-opacity="0.95" />
      <stop offset="100%" stop-color="#ffffff" stop-opacity="0" />
    </radialGradient>
    <filter id="humanoid-robot-shadow" x="-20%" y="-20%" width="140%" height="160%">
      <feDropShadow dx="0" dy="14" stdDeviation="18" flood-color="#0f172a" flood-opacity="0.14" />
    </filter>
    <filter id="humanoid-robot-soft" x="-20%" y="-20%" width="140%" height="160%">
      <feDropShadow dx="0" dy="8" stdDeviation="10" flood-color="#ffffff" flood-opacity="0.2" />
    </filter>
  </defs>
  <rect width="1200" height="900" rx="48" fill="url(#humanoid-robot-bg)" />
  <rect width="1200" height="900" rx="48" fill="url(#humanoid-robot-sun)" opacity="0.72" />
  <circle cx="150" cy="132" r="94" fill="#ffffff" opacity="0.22" />
  <circle cx="1042" cy="126" r="126" fill="#ffffff" opacity="0.18" />
  <path d="M0 650 C132 614 258 604 390 618 C498 630 578 654 678 654 C796 654 886 616 1012 612 C1090 610 1148 624 1200 650 V900 H0 Z" fill="#ffffff" opacity="0.12" />
  <path d="M0 742 C180 700 358 684 540 706 S908 756 1200 736 V900 H0 Z" fill="url(#humanoid-robot-floor)" opacity="0.98" />
  <path d="M0 748 C220 724 362 710 546 722 C742 734 920 746 1200 732" stroke="#ffffff" stroke-opacity="0.34" stroke-width="10" fill="none" />
  <ellipse cx="600" cy="740" rx="320" ry="54" fill="#0f172a" opacity="0.08" />
  <g filter="url(#humanoid-robot-shadow)">
  <rect x="486" y="214" width="228" height="206" rx="44" fill="#ffffff" stroke="#172554" stroke-width="16" />
  <circle cx="552" cy="320" r="16" fill="#4f46e5" />
  <circle cx="648" cy="320" r="16" fill="#4f46e5" />
  <rect x="560" y="372" width="80" height="18" rx="9" fill="#172554" />
  <rect x="518" y="426" width="164" height="184" rx="32" fill="#e2e8f0" stroke="#172554" stroke-width="16" />
  <path d="M518 468 L440 586" stroke="#172554" stroke-width="18" stroke-linecap="round" />
  <path d="M682 468 L760 586" stroke="#172554" stroke-width="18" stroke-linecap="round" />
  <path d="M560 610 L522 736" stroke="#172554" stroke-width="18" stroke-linecap="round" />
  <path d="M640 610 L678 736" stroke="#172554" stroke-width="18" stroke-linecap="round" />
  <circle cx="600" cy="520" r="24" fill="#4f46e5" opacity="0.7" />
  <rect x="548" y="558" width="104" height="16" rx="8" fill="#ffffff" opacity="0.75" />
  </g>
</svg>