<?xml version="1.0" encoding="UTF-8"?>
<svg xmlns="http://www.w3.org/2000/svg" viewBox="0 0 1200 900" role="img" aria-labelledby="internet-title">
  <title id="internet-title">internet</title>
  <defs>
    <linearGradient id="internet-bg" x1="0%" y1="0%" x2="100%" y2="100%">
      <stop offset="0%" stop-color="#f8fafc" />
      <stop offset="100%" stop-color="#e2e8f0" />
    </linearGradient>
    <linearGradient id="internet-floor" x1="0%" y1="0%" x2="0%" y2="100%">
      <stop offset="0%" stop-color="#cbd5e1" />
      <stop offset="100%" stop-color="#ffffff" />
    </linearGradient>
    <radialGradient id="internet-sun" cx="50%" cy="22%" r="58%">
      <stop offset="0%" stop-color="#ffffff" stop-opacity="0.95" />
      <stop offset="100%" stop-color="#ffffff" stop-opacity="0" />
    </radialGradient>
    <filter id="internet-shadow" x="-20%" y="-20%" width="140%" height="160%">
      <feDropShadow dx="0" dy="14" stdDeviation="18" flood-color="#0f172a" flood-opacity="0.14" />
    </filter>
    <filter id="internet-soft" x="-20%" y="-20%" width="140%" height="160%">
      <feDropShadow dx="0" dy="8" stdDeviation="10" flood-color="#ffffff" flood-opacity="0.2" />
    </filter>
  </defs>
  <rect width="1200" height="900" rx="48" fill="url(#internet-bg)" />
  <rect width="1200" height="900" rx="48" fill="url(#internet-sun)" opacity="0.72" />
  <circle cx="150" cy="132" r="94" fill="#ffffff" opacity="0.22" />
  <circle cx="1042" cy="126" r="126" fill="#ffffff" opacity="0.18" />
  <path d="M0 650 C132 614 258 604 390 618 C498 630 578 654 678 654 C796 654 886 616 1012 612 C1090 610 1148 624 1200 650 V900 H0 Z" fill="#ffffff" opacity="0.12" />
  <path d="M0 742 C180 700 358 684 540 706 S908 756 1200 736 V900 H0 Z" fill="url(#internet-floor)" opacity="0.98" />
  <path d="M0 748 C220 724 362 710 546 722 C742 734 920 746 1200 732" stroke="#ffffff" stroke-opacity="0.34" stroke-width="10" fill="none" />
  <ellipse cx="600" cy="740" rx="320" ry="54" fill="#0f172a" opacity="0.08" />
  <g filter="url(#internet-shadow)">
  <rect x="244" y="292" width="182" height="350" rx="24" fill="#ffffff" stroke="#0f172a" stroke-width="14" />
  <rect x="774" y="292" width="182" height="350" rx="24" fill="#ffffff" stroke="#0f172a" stroke-width="14" />
  
  <rect x="284" y="338" width="102" height="38" rx="12" fill="#334155" opacity="0.18" />
  <circle cx="350" cy="357" r="8" fill="#334155" />
  <circle cx="374" cy="357" r="8" fill="#334155" opacity="0.55" />
  <rect x="814" y="338" width="102" height="38" rx="12" fill="#334155" opacity="0.18" />
  <circle cx="880" cy="357" r="8" fill="#334155" />
  <circle cx="904" cy="357" r="8" fill="#334155" opacity="0.55" />
  <rect x="284" y="430" width="102" height="38" rx="12" fill="#334155" opacity="0.18" />
  <circle cx="350" cy="449" r="8" fill="#334155" />
  <circle cx="374" cy="449" r="8" fill="#334155" opacity="0.55" />
  <rect x="814" y="430" width="102" height="38" rx="12" fill="#334155" opacity="0.18" />
  <circle cx="880" cy="449" r="8" fill="#334155" />
  <circle cx="904" cy="449" r="8" fill="#334155" opacity="0.55" />
  <rect x="284" y="522" width="102" height="38" rx="12" fill="#334155" opacity="0.18" />
  <circle cx="350" cy="541" r="8" fill="#334155" />
  <circle cx="374" cy="541" r="8" fill="#334155" opacity="0.55" />
  <rect x="814" y="522" width="102" height="38" rx="12" fill="#334155" opacity="0.18" />
  <circle cx="880" cy="541" r="8" fill="#334155" />
  <circle cx="904" cy="541" r="8" fill="#334155" opacity="0.55" />
  <circle cx="600" cy="448" r="170" fill="#ffffff" stroke="#0f172a" stroke-width="14" />
  <ellipse cx="600" cy="448" rx="120" ry="170" fill="none" stroke="#334155" stroke-width="10" opacity="0.5" />
  <ellipse cx="600" cy="448" rx="56" ry="170" fill="none" stroke="#334155" stroke-width="10" opacity="0.5" />
  <path d="M430 448 H770" stroke="#334155" stroke-width="10" opacity="0.45" />
  <path d="M456 374 C544 402 656 402 744 374" stroke="#334155" stroke-width="10" opacity="0.4" fill="none" />
  <path d="M456 522 C544 494 656 494 744 522" stroke="#334155" stroke-width="10" opacity="0.4" fill="none" />
  <path d="M426 430 C488 420 520 394 546 364" stroke="#0f172a" stroke-width="12" fill="none" stroke-linecap="round" />
  <path d="M774 430 C712 420 680 394 654 364" stroke="#0f172a" stroke-width="12" fill="none" stroke-linecap="round" />
  <circle cx="546" cy="364" r="12" fill="#334155" />
  <circle cx="654" cy="364" r="12" fill="#334155" />
  </g>
</svg>