<?xml version="1.0" encoding="UTF-8"?>
<svg xmlns="http://www.w3.org/2000/svg" viewBox="0 0 1200 900" role="img" aria-labelledby="jellyfish-title">
  <title id="jellyfish-title">jellyfish</title>
  <defs>
    <linearGradient id="jellyfish-bg" x1="0%" y1="0%" x2="100%" y2="100%">
      <stop offset="0%" stop-color="#ecfeff" />
      <stop offset="100%" stop-color="#dcfce7" />
    </linearGradient>
    <linearGradient id="jellyfish-floor" x1="0%" y1="0%" x2="0%" y2="100%">
      <stop offset="0%" stop-color="#d1fae5" />
      <stop offset="100%" stop-color="#ffffff" />
    </linearGradient>
    <radialGradient id="jellyfish-sun" cx="50%" cy="22%" r="58%">
      <stop offset="0%" stop-color="#ffffff" stop-opacity="0.95" />
      <stop offset="100%" stop-color="#ffffff" stop-opacity="0" />
    </radialGradient>
    <filter id="jellyfish-shadow" x="-20%" y="-20%" width="140%" height="160%">
      <feDropShadow dx="0" dy="14" stdDeviation="18" flood-color="#0f172a" flood-opacity="0.14" />
    </filter>
    <filter id="jellyfish-soft" x="-20%" y="-20%" width="140%" height="160%">
      <feDropShadow dx="0" dy="8" stdDeviation="10" flood-color="#ffffff" flood-opacity="0.2" />
    </filter>
  </defs>
  <rect width="1200" height="900" rx="48" fill="url(#jellyfish-bg)" />
  <rect width="1200" height="900" rx="48" fill="url(#jellyfish-sun)" opacity="0.72" />
  <circle cx="150" cy="132" r="94" fill="#ffffff" opacity="0.22" />
  <circle cx="1042" cy="126" r="126" fill="#ffffff" opacity="0.18" />
  <path d="M0 650 C132 614 258 604 390 618 C498 630 578 654 678 654 C796 654 886 616 1012 612 C1090 610 1148 624 1200 650 V900 H0 Z" fill="#ffffff" opacity="0.12" />
  <path d="M0 742 C180 700 358 684 540 706 S908 756 1200 736 V900 H0 Z" fill="url(#jellyfish-floor)" opacity="0.98" />
  <path d="M0 748 C220 724 362 710 546 722 C742 734 920 746 1200 732" stroke="#ffffff" stroke-opacity="0.34" stroke-width="10" fill="none" />
  <ellipse cx="600" cy="740" rx="320" ry="54" fill="#0f172a" opacity="0.08" />
  <g filter="url(#jellyfish-shadow)">
  <path d="M426 450 C436 330 514 258 600 258 C686 258 764 330 774 450 Z" fill="#ffffff" opacity="0.98" />
  <path d="M474 452 H726 C716 558 668 624 600 624 C532 624 484 558 474 452 Z" fill="#059669" opacity="0.55" />
  <path d="M520 620 C492 692 488 742 518 792" stroke="#052e16" stroke-width="14" stroke-linecap="round" fill="none" />
  <path d="M600 628 C594 700 600 750 624 798" stroke="#052e16" stroke-width="14" stroke-linecap="round" fill="none" />
  <path d="M678 620 C700 690 722 742 748 794" stroke="#052e16" stroke-width="14" stroke-linecap="round" fill="none" />
  </g>
</svg>