<?xml version="1.0" encoding="UTF-8"?>
<svg xmlns="http://www.w3.org/2000/svg" viewBox="0 0 1200 900" role="img" aria-labelledby="meditating-monk-title">
  <title id="meditating-monk-title">meditating-monk</title>
  <defs>
    <linearGradient id="meditating-monk-bg" x1="0%" y1="0%" x2="100%" y2="100%">
      <stop offset="0%" stop-color="#eff6ff" />
      <stop offset="100%" stop-color="#dbeafe" />
    </linearGradient>
    <linearGradient id="meditating-monk-floor" x1="0%" y1="0%" x2="0%" y2="100%">
      <stop offset="0%" stop-color="#dbeafe" />
      <stop offset="100%" stop-color="#ffffff" />
    </linearGradient>
    <radialGradient id="meditating-monk-sun" cx="50%" cy="22%" r="58%">
      <stop offset="0%" stop-color="#ffffff" stop-opacity="0.95" />
      <stop offset="100%" stop-color="#ffffff" stop-opacity="0" />
    </radialGradient>
    <filter id="meditating-monk-shadow" x="-20%" y="-20%" width="140%" height="160%">
      <feDropShadow dx="0" dy="14" stdDeviation="18" flood-color="#0f172a" flood-opacity="0.14" />
    </filter>
    <filter id="meditating-monk-soft" x="-20%" y="-20%" width="140%" height="160%">
      <feDropShadow dx="0" dy="8" stdDeviation="10" flood-color="#ffffff" flood-opacity="0.2" />
    </filter>
  </defs>
  <rect width="1200" height="900" rx="48" fill="url(#meditating-monk-bg)" />
  <rect width="1200" height="900" rx="48" fill="url(#meditating-monk-sun)" opacity="0.72" />
  <circle cx="150" cy="132" r="94" fill="#ffffff" opacity="0.22" />
  <circle cx="1042" cy="126" r="126" fill="#ffffff" opacity="0.18" />
  <path d="M0 650 C132 614 258 604 390 618 C498 630 578 654 678 654 C796 654 886 616 1012 612 C1090 610 1148 624 1200 650 V900 H0 Z" fill="#ffffff" opacity="0.12" />
  <path d="M0 742 C180 700 358 684 540 706 S908 756 1200 736 V900 H0 Z" fill="url(#meditating-monk-floor)" opacity="0.98" />
  <path d="M0 748 C220 724 362 710 546 722 C742 734 920 746 1200 732" stroke="#ffffff" stroke-opacity="0.34" stroke-width="10" fill="none" />
  <ellipse cx="600" cy="740" rx="320" ry="54" fill="#0f172a" opacity="0.08" />
  <g filter="url(#meditating-monk-shadow)">
  <circle cx="600" cy="296" r="72" fill="#f2c9a5" />
  <path d="M540 274 C550 232 650 232 660 274 C648 244 630 234 600 234 C570 234 552 244 540 274 Z" fill="#f97316" opacity="0.5" />
  <path d="M480 402 C480 380 530 360 600 360 C670 360 720 380 720 402 L720 580 C720 610 670 640 600 640 C530 640 480 610 480 580 Z" fill="#f97316" />
  <path d="M480 420 L420 530 C430 550 454 558 478 550" stroke="#f97316" stroke-width="20" fill="none" stroke-linecap="round" />
  <path d="M720 420 L780 530 C770 550 746 558 722 550" stroke="#f97316" stroke-width="20" fill="none" stroke-linecap="round" />
  <path d="M520 560 C520 590 560 614 600 614 C640 614 680 590 680 560" stroke="#0f172a" stroke-width="18" stroke-linecap="round" fill="none" />
  <circle cx="600" cy="210" r="24" fill="#f59e0b" opacity="0.25" />
  <circle cx="600" cy="170" r="16" fill="#f59e0b" opacity="0.15" />
  <circle cx="600" cy="140" r="10" fill="#f59e0b" opacity="0.1" />
  </g>
</svg>