<?xml version="1.0" encoding="UTF-8"?>
<svg xmlns="http://www.w3.org/2000/svg" viewBox="0 0 1200 900" role="img" aria-labelledby="oak-tree-title">
  <title id="oak-tree-title">oak-tree</title>
  <defs>
    <linearGradient id="oak-tree-bg" x1="0%" y1="0%" x2="100%" y2="100%">
      <stop offset="0%" stop-color="#fefce8" />
      <stop offset="100%" stop-color="#dcfce7" />
    </linearGradient>
    <linearGradient id="oak-tree-floor" x1="0%" y1="0%" x2="0%" y2="100%">
      <stop offset="0%" stop-color="#d9f99d" />
      <stop offset="100%" stop-color="#fffef5" />
    </linearGradient>
    <radialGradient id="oak-tree-sun" cx="50%" cy="22%" r="58%">
      <stop offset="0%" stop-color="#ffffff" stop-opacity="0.95" />
      <stop offset="100%" stop-color="#ffffff" stop-opacity="0" />
    </radialGradient>
    <filter id="oak-tree-shadow" x="-20%" y="-20%" width="140%" height="160%">
      <feDropShadow dx="0" dy="14" stdDeviation="18" flood-color="#0f172a" flood-opacity="0.14" />
    </filter>
    <filter id="oak-tree-soft" x="-20%" y="-20%" width="140%" height="160%">
      <feDropShadow dx="0" dy="8" stdDeviation="10" flood-color="#ffffff" flood-opacity="0.2" />
    </filter>
  </defs>
  <rect width="1200" height="900" rx="48" fill="url(#oak-tree-bg)" />
  <rect width="1200" height="900" rx="48" fill="url(#oak-tree-sun)" opacity="0.72" />
  <circle cx="150" cy="132" r="94" fill="#fffef5" opacity="0.22" />
  <circle cx="1042" cy="126" r="126" fill="#fffef5" opacity="0.18" />
  <path d="M0 650 C132 614 258 604 390 618 C498 630 578 654 678 654 C796 654 886 616 1012 612 C1090 610 1148 624 1200 650 V900 H0 Z" fill="#fffef5" opacity="0.12" />
  <path d="M0 742 C180 700 358 684 540 706 S908 756 1200 736 V900 H0 Z" fill="url(#oak-tree-floor)" opacity="0.98" />
  <path d="M0 748 C220 724 362 710 546 722 C742 734 920 746 1200 732" stroke="#ffffff" stroke-opacity="0.34" stroke-width="10" fill="none" />
  <ellipse cx="600" cy="740" rx="320" ry="54" fill="#0f172a" opacity="0.08" />
  <g filter="url(#oak-tree-shadow)">
  <rect x="542" y="374" width="116" height="284" rx="28" fill="#7c2d12" />
  <circle cx="600" cy="308" r="168" fill="#65a30d" />
  <circle cx="496" cy="338" r="104" fill="#4d7c0f" opacity="0.96" />
  <circle cx="710" cy="338" r="104" fill="#4d7c0f" opacity="0.96" />
  </g>
</svg>