<?xml version="1.0" encoding="UTF-8"?>
<svg xmlns="http://www.w3.org/2000/svg" viewBox="0 0 1200 900" role="img" aria-labelledby="octopus-title">
  <title id="octopus-title">octopus</title>
  <defs>
    <linearGradient id="octopus-bg" x1="0%" y1="0%" x2="100%" y2="100%">
      <stop offset="0%" stop-color="#ecfeff" />
      <stop offset="100%" stop-color="#dcfce7" />
    </linearGradient>
    <linearGradient id="octopus-floor" x1="0%" y1="0%" x2="0%" y2="100%">
      <stop offset="0%" stop-color="#d1fae5" />
      <stop offset="100%" stop-color="#ffffff" />
    </linearGradient>
    <radialGradient id="octopus-sun" cx="50%" cy="22%" r="58%">
      <stop offset="0%" stop-color="#ffffff" stop-opacity="0.95" />
      <stop offset="100%" stop-color="#ffffff" stop-opacity="0" />
    </radialGradient>
    <filter id="octopus-shadow" x="-20%" y="-20%" width="140%" height="160%">
      <feDropShadow dx="0" dy="14" stdDeviation="18" flood-color="#0f172a" flood-opacity="0.14" />
    </filter>
    <filter id="octopus-soft" x="-20%" y="-20%" width="140%" height="160%">
      <feDropShadow dx="0" dy="8" stdDeviation="10" flood-color="#ffffff" flood-opacity="0.2" />
    </filter>
  </defs>
  <rect width="1200" height="900" rx="48" fill="url(#octopus-bg)" />
  <rect width="1200" height="900" rx="48" fill="url(#octopus-sun)" opacity="0.72" />
  <circle cx="150" cy="132" r="94" fill="#ffffff" opacity="0.22" />
  <circle cx="1042" cy="126" r="126" fill="#ffffff" opacity="0.18" />
  <path d="M0 650 C132 614 258 604 390 618 C498 630 578 654 678 654 C796 654 886 616 1012 612 C1090 610 1148 624 1200 650 V900 H0 Z" fill="#ffffff" opacity="0.12" />
  <path d="M0 742 C180 700 358 684 540 706 S908 756 1200 736 V900 H0 Z" fill="url(#octopus-floor)" opacity="0.98" />
  <path d="M0 748 C220 724 362 710 546 722 C742 734 920 746 1200 732" stroke="#ffffff" stroke-opacity="0.34" stroke-width="10" fill="none" />
  <ellipse cx="600" cy="740" rx="320" ry="54" fill="#0f172a" opacity="0.08" />
  <g filter="url(#octopus-shadow)">
  <path d="M430 446 C430 316 512 242 600 242 C688 242 770 316 770 446 C770 560 690 620 600 620 C510 620 430 560 430 446 Z" fill="#059669" />
  <path d="M454 594 C404 638 398 708 436 770" stroke="#059669" stroke-width="24" stroke-linecap="round" fill="none" />
  <path d="M518 612 C490 678 490 738 514 794" stroke="#059669" stroke-width="24" stroke-linecap="round" fill="none" />
  <path d="M586 620 C584 698 592 748 612 794" stroke="#059669" stroke-width="24" stroke-linecap="round" fill="none" />
  <path d="M654 612 C680 678 712 736 748 782" stroke="#059669" stroke-width="24" stroke-linecap="round" fill="none" />
  <circle cx="548" cy="430" r="14" fill="#ffffff" />
  <circle cx="652" cy="430" r="14" fill="#ffffff" />
  </g>
</svg>