<?xml version="1.0" encoding="UTF-8"?>
<svg xmlns="http://www.w3.org/2000/svg" viewBox="0 0 1200 900" role="img" aria-labelledby="person-with-dementia-title">
  <title id="person-with-dementia-title">person-with-dementia</title>
  <defs>
    <linearGradient id="person-with-dementia-bg" x1="0%" y1="0%" x2="100%" y2="100%">
      <stop offset="0%" stop-color="#eff6ff" />
      <stop offset="100%" stop-color="#dbeafe" />
    </linearGradient>
    <linearGradient id="person-with-dementia-floor" x1="0%" y1="0%" x2="0%" y2="100%">
      <stop offset="0%" stop-color="#dbeafe" />
      <stop offset="100%" stop-color="#ffffff" />
    </linearGradient>
    <radialGradient id="person-with-dementia-sun" cx="50%" cy="22%" r="58%">
      <stop offset="0%" stop-color="#ffffff" stop-opacity="0.95" />
      <stop offset="100%" stop-color="#ffffff" stop-opacity="0" />
    </radialGradient>
    <filter id="person-with-dementia-shadow" x="-20%" y="-20%" width="140%" height="160%">
      <feDropShadow dx="0" dy="14" stdDeviation="18" flood-color="#0f172a" flood-opacity="0.14" />
    </filter>
    <filter id="person-with-dementia-soft" x="-20%" y="-20%" width="140%" height="160%">
      <feDropShadow dx="0" dy="8" stdDeviation="10" flood-color="#ffffff" flood-opacity="0.2" />
    </filter>
  </defs>
  <rect width="1200" height="900" rx="48" fill="url(#person-with-dementia-bg)" />
  <rect width="1200" height="900" rx="48" fill="url(#person-with-dementia-sun)" opacity="0.72" />
  <circle cx="150" cy="132" r="94" fill="#ffffff" opacity="0.22" />
  <circle cx="1042" cy="126" r="126" fill="#ffffff" opacity="0.18" />
  <path d="M0 650 C132 614 258 604 390 618 C498 630 578 654 678 654 C796 654 886 616 1012 612 C1090 610 1148 624 1200 650 V900 H0 Z" fill="#ffffff" opacity="0.12" />
  <path d="M0 742 C180 700 358 684 540 706 S908 756 1200 736 V900 H0 Z" fill="url(#person-with-dementia-floor)" opacity="0.98" />
  <path d="M0 748 C220 724 362 710 546 722 C742 734 920 746 1200 732" stroke="#ffffff" stroke-opacity="0.34" stroke-width="10" fill="none" />
  <ellipse cx="600" cy="740" rx="320" ry="54" fill="#0f172a" opacity="0.08" />
  <g filter="url(#person-with-dementia-shadow)">
  <circle cx="600" cy="296" r="82" fill="#f2c9a5" />
  <path d="M530 268 C544 206 656 206 670 268 C648 220 626 206 600 206 C574 206 552 220 530 268 Z" fill="#cbd5e1" />
  <rect x="530" y="382" width="140" height="216" rx="56" fill="#2563eb" />
  <path d="M530 420 L440 560" stroke="#f2c9a5" stroke-width="22" stroke-linecap="round" />
  <path d="M670 420 L760 560" stroke="#f2c9a5" stroke-width="22" stroke-linecap="round" />
  <path d="M566 596 L540 738" stroke="#0f172a" stroke-width="22" stroke-linecap="round" />
  <path d="M634 596 L660 738" stroke="#0f172a" stroke-width="22" stroke-linecap="round" />
  <circle cx="718" cy="224" r="18" fill="#2563eb" opacity="0.15" />
  <circle cx="756" cy="268" r="12" fill="#2563eb" opacity="0.12" />
  <circle cx="782" cy="318" r="8" fill="#2563eb" opacity="0.08" />
  <text x="700" y="200" font-family="Arial, Helvetica, sans-serif" font-size="30" fill="#2563eb" opacity="0.3">?</text>
  <text x="760" y="250" font-family="Arial, Helvetica, sans-serif" font-size="24" fill="#2563eb" opacity="0.2">?</text>
  </g>
</svg>