<?xml version="1.0" encoding="UTF-8"?>
<svg xmlns="http://www.w3.org/2000/svg" viewBox="0 0 1200 900" role="img" aria-labelledby="picasso-title">
  <title id="picasso-title">picasso</title>
  <defs>
    <linearGradient id="picasso-bg" x1="0%" y1="0%" x2="100%" y2="100%">
      <stop offset="0%" stop-color="#fff7ed" />
      <stop offset="100%" stop-color="#fef3c7" />
    </linearGradient>
    <linearGradient id="picasso-floor" x1="0%" y1="0%" x2="0%" y2="100%">
      <stop offset="0%" stop-color="#fde68a" />
      <stop offset="100%" stop-color="#ffffff" />
    </linearGradient>
    <radialGradient id="picasso-sun" cx="50%" cy="22%" r="58%">
      <stop offset="0%" stop-color="#ffffff" stop-opacity="0.95" />
      <stop offset="100%" stop-color="#ffffff" stop-opacity="0" />
    </radialGradient>
    <filter id="picasso-shadow" x="-20%" y="-20%" width="140%" height="160%">
      <feDropShadow dx="0" dy="14" stdDeviation="18" flood-color="#0f172a" flood-opacity="0.14" />
    </filter>
    <filter id="picasso-soft" x="-20%" y="-20%" width="140%" height="160%">
      <feDropShadow dx="0" dy="8" stdDeviation="10" flood-color="#ffffff" flood-opacity="0.2" />
    </filter>
  </defs>
  <rect width="1200" height="900" rx="48" fill="url(#picasso-bg)" />
  <rect width="1200" height="900" rx="48" fill="url(#picasso-sun)" opacity="0.72" />
  <circle cx="150" cy="132" r="94" fill="#ffffff" opacity="0.22" />
  <circle cx="1042" cy="126" r="126" fill="#ffffff" opacity="0.18" />
  <path d="M0 650 C132 614 258 604 390 618 C498 630 578 654 678 654 C796 654 886 616 1012 612 C1090 610 1148 624 1200 650 V900 H0 Z" fill="#ffffff" opacity="0.12" />
  <path d="M0 742 C180 700 358 684 540 706 S908 756 1200 736 V900 H0 Z" fill="url(#picasso-floor)" opacity="0.98" />
  <path d="M0 748 C220 724 362 710 546 722 C742 734 920 746 1200 732" stroke="#ffffff" stroke-opacity="0.34" stroke-width="10" fill="none" />
  <ellipse cx="600" cy="740" rx="320" ry="54" fill="#0f172a" opacity="0.08" />
  <g filter="url(#picasso-shadow)">
  <circle cx="600" cy="310" r="82" fill="#f2c9a5" />
  <path d="M530 262 C540 218 660 218 670 262 C654 230 634 218 600 218 C566 218 546 230 530 262 Z" fill="#0f172a" />
  <circle cx="566" cy="304" r="10" fill="#0f172a" />
  <circle cx="640" cy="296" r="12" fill="#0f172a" />
  <path d="M580 344 C592 360 608 358 618 342" stroke="#0f172a" stroke-width="5" fill="none" />
  <path d="M566 318 L558 340 L580 332" stroke="#0f172a" stroke-width="4" fill="none" />
  <rect x="524" y="396" width="152" height="206" rx="54" fill="#1e3a5f" />
  <rect x="530" y="410" width="140" height="30" rx="15" fill="#ffffff" opacity="0.2" />
  <path d="M524 440 L430 578" stroke="#f2c9a5" stroke-width="22" stroke-linecap="round" />
  <path d="M676 440 L770 578" stroke="#f2c9a5" stroke-width="22" stroke-linecap="round" />
  <path d="M564 600 L540 738" stroke="#0f172a" stroke-width="22" stroke-linecap="round" />
  <path d="M636 600 L660 738" stroke="#0f172a" stroke-width="22" stroke-linecap="round" />
  <rect x="756" y="430" width="120" height="160" rx="8" fill="#ffffff" stroke="#b45309" stroke-width="6" />
  <circle cx="796" cy="490" r="20" fill="#3b82f6" />
  <rect x="804" y="510" width="40" height="50" rx="4" fill="#f97316" />
  <path d="M776 540 L836 500" stroke="#16a34a" stroke-width="6" />
  </g>
</svg>