<?xml version="1.0" encoding="UTF-8"?>
<svg xmlns="http://www.w3.org/2000/svg" viewBox="0 0 1200 900" role="img" aria-labelledby="self-driving-car-title">
  <title id="self-driving-car-title">self-driving-car</title>
  <defs>
    <linearGradient id="self-driving-car-bg" x1="0%" y1="0%" x2="100%" y2="100%">
      <stop offset="0%" stop-color="#eff6ff" />
      <stop offset="100%" stop-color="#e0e7ff" />
    </linearGradient>
    <linearGradient id="self-driving-car-floor" x1="0%" y1="0%" x2="0%" y2="100%">
      <stop offset="0%" stop-color="#c7d2fe" />
      <stop offset="100%" stop-color="#ffffff" />
    </linearGradient>
    <radialGradient id="self-driving-car-sun" cx="50%" cy="22%" r="58%">
      <stop offset="0%" stop-color="#ffffff" stop-opacity="0.95" />
      <stop offset="100%" stop-color="#ffffff" stop-opacity="0" />
    </radialGradient>
    <filter id="self-driving-car-shadow" x="-20%" y="-20%" width="140%" height="160%">
      <feDropShadow dx="0" dy="14" stdDeviation="18" flood-color="#0f172a" flood-opacity="0.14" />
    </filter>
    <filter id="self-driving-car-soft" x="-20%" y="-20%" width="140%" height="160%">
      <feDropShadow dx="0" dy="8" stdDeviation="10" flood-color="#ffffff" flood-opacity="0.2" />
    </filter>
  </defs>
  <rect width="1200" height="900" rx="48" fill="url(#self-driving-car-bg)" />
  <rect width="1200" height="900" rx="48" fill="url(#self-driving-car-sun)" opacity="0.72" />
  <circle cx="150" cy="132" r="94" fill="#ffffff" opacity="0.22" />
  <circle cx="1042" cy="126" r="126" fill="#ffffff" opacity="0.18" />
  <path d="M0 650 C132 614 258 604 390 618 C498 630 578 654 678 654 C796 654 886 616 1012 612 C1090 610 1148 624 1200 650 V900 H0 Z" fill="#ffffff" opacity="0.12" />
  <path d="M0 742 C180 700 358 684 540 706 S908 756 1200 736 V900 H0 Z" fill="url(#self-driving-car-floor)" opacity="0.98" />
  <path d="M0 748 C220 724 362 710 546 722 C742 734 920 746 1200 732" stroke="#ffffff" stroke-opacity="0.34" stroke-width="10" fill="none" />
  <ellipse cx="600" cy="740" rx="320" ry="54" fill="#0f172a" opacity="0.08" />
  <g filter="url(#self-driving-car-shadow)">
  <path d="M310 520 L370 380 C400 340 500 310 600 310 C700 310 800 340 830 380 L890 520 Z" fill="#172554" />
  <rect x="280" y="520" width="640" height="120" rx="28" fill="#172554" />
  <path d="M400 380 C440 340 520 320 600 320 C680 320 760 340 800 380 L760 420 C720 396 660 380 600 380 C540 380 480 396 440 420 Z" fill="#4f46e5" opacity="0.2" />
  <rect x="380" y="390" width="240" height="100" rx="18" fill="#60a5fa" opacity="0.4" />
  <circle cx="380" cy="640" r="42" fill="#475569" />
  <circle cx="380" cy="640" r="20" fill="#94a3b8" />
  <circle cx="820" cy="640" r="42" fill="#475569" />
  <circle cx="820" cy="640" r="20" fill="#94a3b8" />
  <circle cx="340" cy="540" r="18" fill="#facc15" opacity="0.9" />
  <circle cx="860" cy="540" r="18" fill="#facc15" opacity="0.9" />
  <circle cx="520" cy="330" r="10" fill="#4f46e5" opacity="0.6" />
  <circle cx="600" cy="320" r="10" fill="#4f46e5" opacity="0.6" />
  <circle cx="680" cy="330" r="10" fill="#4f46e5" opacity="0.6" />
  <path d="M510 310 C530 280 560 264 600 260 C640 264 670 280 690 310" stroke="#4f46e5" stroke-width="8" fill="none" opacity="0.4" stroke-linecap="round" />
  </g>
</svg>