<?xml version="1.0" encoding="UTF-8"?>
<svg xmlns="http://www.w3.org/2000/svg" viewBox="0 0 1200 900" role="img" aria-labelledby="slime-mold-title">
  <title id="slime-mold-title">slime-mold</title>
  <defs>
    <linearGradient id="slime-mold-bg" x1="0%" y1="0%" x2="100%" y2="100%">
      <stop offset="0%" stop-color="#fefce8" />
      <stop offset="100%" stop-color="#dcfce7" />
    </linearGradient>
    <linearGradient id="slime-mold-floor" x1="0%" y1="0%" x2="0%" y2="100%">
      <stop offset="0%" stop-color="#d9f99d" />
      <stop offset="100%" stop-color="#fffef5" />
    </linearGradient>
    <radialGradient id="slime-mold-sun" cx="50%" cy="22%" r="58%">
      <stop offset="0%" stop-color="#ffffff" stop-opacity="0.95" />
      <stop offset="100%" stop-color="#ffffff" stop-opacity="0" />
    </radialGradient>
    <filter id="slime-mold-shadow" x="-20%" y="-20%" width="140%" height="160%">
      <feDropShadow dx="0" dy="14" stdDeviation="18" flood-color="#0f172a" flood-opacity="0.14" />
    </filter>
    <filter id="slime-mold-soft" x="-20%" y="-20%" width="140%" height="160%">
      <feDropShadow dx="0" dy="8" stdDeviation="10" flood-color="#ffffff" flood-opacity="0.2" />
    </filter>
  </defs>
  <rect width="1200" height="900" rx="48" fill="url(#slime-mold-bg)" />
  <rect width="1200" height="900" rx="48" fill="url(#slime-mold-sun)" opacity="0.72" />
  <circle cx="150" cy="132" r="94" fill="#fffef5" opacity="0.22" />
  <circle cx="1042" cy="126" r="126" fill="#fffef5" opacity="0.18" />
  <path d="M0 650 C132 614 258 604 390 618 C498 630 578 654 678 654 C796 654 886 616 1012 612 C1090 610 1148 624 1200 650 V900 H0 Z" fill="#fffef5" opacity="0.12" />
  <path d="M0 742 C180 700 358 684 540 706 S908 756 1200 736 V900 H0 Z" fill="url(#slime-mold-floor)" opacity="0.98" />
  <path d="M0 748 C220 724 362 710 546 722 C742 734 920 746 1200 732" stroke="#ffffff" stroke-opacity="0.34" stroke-width="10" fill="none" />
  <ellipse cx="600" cy="740" rx="320" ry="54" fill="#0f172a" opacity="0.08" />
  <g filter="url(#slime-mold-shadow)">
  <path d="M332 566 C388 474 500 428 596 446 C648 388 750 374 836 428 C898 466 918 560 890 630 C842 696 734 730 648 708 C562 734 446 718 384 648 C350 622 326 594 332 566 Z" fill="#f59e0b" opacity="0.94" />
  <circle cx="466" cy="560" r="24" fill="#fffef5" opacity="0.92" />
  <circle cx="612" cy="526" r="28" fill="#fffef5" opacity="0.92" />
  <circle cx="758" cy="576" r="24" fill="#fffef5" opacity="0.92" />
  </g>
</svg>