<?xml version="1.0" encoding="UTF-8"?>
<svg xmlns="http://www.w3.org/2000/svg" viewBox="0 0 1200 900" role="img" aria-labelledby="spider-title">
  <title id="spider-title">spider</title>
  <defs>
    <linearGradient id="spider-bg" x1="0%" y1="0%" x2="100%" y2="100%">
      <stop offset="0%" stop-color="#ecfeff" />
      <stop offset="100%" stop-color="#dcfce7" />
    </linearGradient>
    <linearGradient id="spider-floor" x1="0%" y1="0%" x2="0%" y2="100%">
      <stop offset="0%" stop-color="#d1fae5" />
      <stop offset="100%" stop-color="#ffffff" />
    </linearGradient>
    <radialGradient id="spider-sun" cx="50%" cy="22%" r="58%">
      <stop offset="0%" stop-color="#ffffff" stop-opacity="0.95" />
      <stop offset="100%" stop-color="#ffffff" stop-opacity="0" />
    </radialGradient>
    <filter id="spider-shadow" x="-20%" y="-20%" width="140%" height="160%">
      <feDropShadow dx="0" dy="14" stdDeviation="18" flood-color="#0f172a" flood-opacity="0.14" />
    </filter>
    <filter id="spider-soft" x="-20%" y="-20%" width="140%" height="160%">
      <feDropShadow dx="0" dy="8" stdDeviation="10" flood-color="#ffffff" flood-opacity="0.2" />
    </filter>
  </defs>
  <rect width="1200" height="900" rx="48" fill="url(#spider-bg)" />
  <rect width="1200" height="900" rx="48" fill="url(#spider-sun)" opacity="0.72" />
  <circle cx="150" cy="132" r="94" fill="#ffffff" opacity="0.22" />
  <circle cx="1042" cy="126" r="126" fill="#ffffff" opacity="0.18" />
  <path d="M0 650 C132 614 258 604 390 618 C498 630 578 654 678 654 C796 654 886 616 1012 612 C1090 610 1148 624 1200 650 V900 H0 Z" fill="#ffffff" opacity="0.12" />
  <path d="M0 742 C180 700 358 684 540 706 S908 756 1200 736 V900 H0 Z" fill="url(#spider-floor)" opacity="0.98" />
  <path d="M0 748 C220 724 362 710 546 722 C742 734 920 746 1200 732" stroke="#ffffff" stroke-opacity="0.34" stroke-width="10" fill="none" />
  <ellipse cx="600" cy="740" rx="320" ry="54" fill="#0f172a" opacity="0.08" />
  <g filter="url(#spider-shadow)">
  <ellipse cx="600" cy="440" rx="56" ry="48" fill="#052e16" />
  <circle cx="600" cy="380" r="36" fill="#052e16" />
  <circle cx="586" cy="372" r="8" fill="#ef4444" />
  <circle cx="614" cy="372" r="8" fill="#ef4444" />
  <circle cx="580" cy="388" r="6" fill="#ef4444" opacity="0.7" />
  <circle cx="620" cy="388" r="6" fill="#ef4444" opacity="0.7" />
  <path d="M560 415 Q440 325 360 445" stroke="#052e16" stroke-width="6" fill="none" stroke-linecap="round" />
  <path d="M560 425 Q440 355 360 475" stroke="#052e16" stroke-width="6" fill="none" stroke-linecap="round" />
  <path d="M560 435 Q440 385 360 505" stroke="#052e16" stroke-width="6" fill="none" stroke-linecap="round" />
  <path d="M560 445 Q440 415 360 535" stroke="#052e16" stroke-width="6" fill="none" stroke-linecap="round" />
  <path d="M640 415 Q760 325 840 445" stroke="#052e16" stroke-width="6" fill="none" stroke-linecap="round" />
  <path d="M640 425 Q760 355 840 475" stroke="#052e16" stroke-width="6" fill="none" stroke-linecap="round" />
  <path d="M640 435 Q760 385 840 505" stroke="#052e16" stroke-width="6" fill="none" stroke-linecap="round" />
  <path d="M640 445 Q760 415 840 535" stroke="#052e16" stroke-width="6" fill="none" stroke-linecap="round" />
  </g>
</svg>