<?xml version="1.0" encoding="UTF-8"?>
<svg xmlns="http://www.w3.org/2000/svg" viewBox="0 0 1200 900" role="img" aria-labelledby="universe-title">
  <title id="universe-title">universe</title>
  <defs>
    <linearGradient id="universe-bg" x1="0%" y1="0%" x2="100%" y2="100%">
      <stop offset="0%" stop-color="#dbeafe" />
      <stop offset="100%" stop-color="#ddd6fe" />
    </linearGradient>
    <linearGradient id="universe-floor" x1="0%" y1="0%" x2="0%" y2="100%">
      <stop offset="0%" stop-color="#c4b5fd" />
      <stop offset="100%" stop-color="#f8fafc" />
    </linearGradient>
    <radialGradient id="universe-sun" cx="50%" cy="22%" r="58%">
      <stop offset="0%" stop-color="#ffffff" stop-opacity="0.95" />
      <stop offset="100%" stop-color="#ffffff" stop-opacity="0" />
    </radialGradient>
    <filter id="universe-shadow" x="-20%" y="-20%" width="140%" height="160%">
      <feDropShadow dx="0" dy="14" stdDeviation="18" flood-color="#0f172a" flood-opacity="0.14" />
    </filter>
    <filter id="universe-soft" x="-20%" y="-20%" width="140%" height="160%">
      <feDropShadow dx="0" dy="8" stdDeviation="10" flood-color="#ffffff" flood-opacity="0.2" />
    </filter>
  </defs>
  <rect width="1200" height="900" rx="48" fill="url(#universe-bg)" />
  <rect width="1200" height="900" rx="48" fill="url(#universe-sun)" opacity="0.72" />
  <circle cx="150" cy="132" r="94" fill="#f8fafc" opacity="0.22" />
  <circle cx="1042" cy="126" r="126" fill="#f8fafc" opacity="0.18" />
  <path d="M0 650 C132 614 258 604 390 618 C498 630 578 654 678 654 C796 654 886 616 1012 612 C1090 610 1148 624 1200 650 V900 H0 Z" fill="#f8fafc" opacity="0.12" />
  <path d="M0 742 C180 700 358 684 540 706 S908 756 1200 736 V900 H0 Z" fill="url(#universe-floor)" opacity="0.98" />
  <path d="M0 748 C220 724 362 710 546 722 C742 734 920 746 1200 732" stroke="#ffffff" stroke-opacity="0.34" stroke-width="10" fill="none" />
  <ellipse cx="600" cy="740" rx="320" ry="54" fill="#0f172a" opacity="0.08" />
  <g filter="url(#universe-shadow)">
  <circle cx="600" cy="452" r="216" fill="#312e81" />
  <path d="M428 452 C466 388 532 356 600 356 C694 356 772 420 772 500 C772 580 694 644 600 644 C522 644 454 602 424 540" stroke="#c4b5fd" stroke-width="18" stroke-linecap="round" fill="none" />
  <circle cx="600" cy="452" r="48" fill="#f8fafc" opacity="0.94" />
  <circle cx="520" cy="342" r="12" fill="#f8fafc" />
  <circle cx="760" cy="308" r="10" fill="#f8fafc" />
  <circle cx="434" cy="594" r="12" fill="#f8fafc" />
  </g>
</svg>