<?xml version="1.0" encoding="UTF-8"?>
<svg xmlns="http://www.w3.org/2000/svg" viewBox="0 0 1200 900" role="img" aria-labelledby="venus-flytrap-title">
  <title id="venus-flytrap-title">venus-flytrap</title>
  <defs>
    <linearGradient id="venus-flytrap-bg" x1="0%" y1="0%" x2="100%" y2="100%">
      <stop offset="0%" stop-color="#fefce8" />
      <stop offset="100%" stop-color="#dcfce7" />
    </linearGradient>
    <linearGradient id="venus-flytrap-floor" x1="0%" y1="0%" x2="0%" y2="100%">
      <stop offset="0%" stop-color="#d9f99d" />
      <stop offset="100%" stop-color="#fffef5" />
    </linearGradient>
    <radialGradient id="venus-flytrap-sun" cx="50%" cy="22%" r="58%">
      <stop offset="0%" stop-color="#ffffff" stop-opacity="0.95" />
      <stop offset="100%" stop-color="#ffffff" stop-opacity="0" />
    </radialGradient>
    <filter id="venus-flytrap-shadow" x="-20%" y="-20%" width="140%" height="160%">
      <feDropShadow dx="0" dy="14" stdDeviation="18" flood-color="#0f172a" flood-opacity="0.14" />
    </filter>
    <filter id="venus-flytrap-soft" x="-20%" y="-20%" width="140%" height="160%">
      <feDropShadow dx="0" dy="8" stdDeviation="10" flood-color="#ffffff" flood-opacity="0.2" />
    </filter>
  </defs>
  <rect width="1200" height="900" rx="48" fill="url(#venus-flytrap-bg)" />
  <rect width="1200" height="900" rx="48" fill="url(#venus-flytrap-sun)" opacity="0.72" />
  <circle cx="150" cy="132" r="94" fill="#fffef5" opacity="0.22" />
  <circle cx="1042" cy="126" r="126" fill="#fffef5" opacity="0.18" />
  <path d="M0 650 C132 614 258 604 390 618 C498 630 578 654 678 654 C796 654 886 616 1012 612 C1090 610 1148 624 1200 650 V900 H0 Z" fill="#fffef5" opacity="0.12" />
  <path d="M0 742 C180 700 358 684 540 706 S908 756 1200 736 V900 H0 Z" fill="url(#venus-flytrap-floor)" opacity="0.98" />
  <path d="M0 748 C220 724 362 710 546 722 C742 734 920 746 1200 732" stroke="#ffffff" stroke-opacity="0.34" stroke-width="10" fill="none" />
  <ellipse cx="600" cy="740" rx="320" ry="54" fill="#0f172a" opacity="0.08" />
  <g filter="url(#venus-flytrap-shadow)">
  <path d="M600 680 C594 598 594 512 600 430" stroke="#65a30d" stroke-width="24" fill="none" stroke-linecap="round" />
  <path d="M456 410 C516 286 654 286 716 410 C658 450 550 452 456 410 Z" fill="#65a30d" />
  <path d="M494 404 C544 338 628 338 678 404" stroke="#1a2e05" stroke-width="14" stroke-linecap="round" fill="none" />
  <path d="M482 414 L442 344" stroke="#1a2e05" stroke-width="7" />
  <path d="M520 388 L498 302" stroke="#1a2e05" stroke-width="7" />
  <path d="M680 388 L702 302" stroke="#1a2e05" stroke-width="7" />
  <path d="M718 414 L758 344" stroke="#1a2e05" stroke-width="7" />
  </g>
</svg>