<?xml version="1.0" encoding="UTF-8"?>
<svg xmlns="http://www.w3.org/2000/svg" viewBox="0 0 1200 900" role="img" aria-labelledby="virus-title">
  <title id="virus-title">virus</title>
  <defs>
    <linearGradient id="virus-bg" x1="0%" y1="0%" x2="100%" y2="100%">
      <stop offset="0%" stop-color="#fefce8" />
      <stop offset="100%" stop-color="#dcfce7" />
    </linearGradient>
    <linearGradient id="virus-floor" x1="0%" y1="0%" x2="0%" y2="100%">
      <stop offset="0%" stop-color="#d9f99d" />
      <stop offset="100%" stop-color="#fffef5" />
    </linearGradient>
    <radialGradient id="virus-sun" cx="50%" cy="22%" r="58%">
      <stop offset="0%" stop-color="#ffffff" stop-opacity="0.95" />
      <stop offset="100%" stop-color="#ffffff" stop-opacity="0" />
    </radialGradient>
    <filter id="virus-shadow" x="-20%" y="-20%" width="140%" height="160%">
      <feDropShadow dx="0" dy="14" stdDeviation="18" flood-color="#0f172a" flood-opacity="0.14" />
    </filter>
    <filter id="virus-soft" x="-20%" y="-20%" width="140%" height="160%">
      <feDropShadow dx="0" dy="8" stdDeviation="10" flood-color="#ffffff" flood-opacity="0.2" />
    </filter>
  </defs>
  <rect width="1200" height="900" rx="48" fill="url(#virus-bg)" />
  <rect width="1200" height="900" rx="48" fill="url(#virus-sun)" opacity="0.72" />
  <circle cx="150" cy="132" r="94" fill="#fffef5" opacity="0.22" />
  <circle cx="1042" cy="126" r="126" fill="#fffef5" opacity="0.18" />
  <path d="M0 650 C132 614 258 604 390 618 C498 630 578 654 678 654 C796 654 886 616 1012 612 C1090 610 1148 624 1200 650 V900 H0 Z" fill="#fffef5" opacity="0.12" />
  <path d="M0 742 C180 700 358 684 540 706 S908 756 1200 736 V900 H0 Z" fill="url(#virus-floor)" opacity="0.98" />
  <path d="M0 748 C220 724 362 710 546 722 C742 734 920 746 1200 732" stroke="#ffffff" stroke-opacity="0.34" stroke-width="10" fill="none" />
  <ellipse cx="600" cy="740" rx="320" ry="54" fill="#0f172a" opacity="0.08" />
  <g filter="url(#virus-shadow)">
  <circle cx="600" cy="450" r="120" fill="#65a30d" />
  <circle cx="600" cy="450" r="90" fill="#fffef5" opacity="0.2" />
  <path d="M720 450 L770 450" stroke="#65a30d" stroke-width="10" stroke-linecap="round" />
    <circle cx="770" cy="450" r="16" fill="#65a30d" />
  <path d="M684.8528137423857 534.8528137423857 L720.2081528017131 570.208152801713" stroke="#65a30d" stroke-width="10" stroke-linecap="round" />
    <circle cx="720.2081528017131" cy="570.208152801713" r="16" fill="#65a30d" />
  <path d="M600 570 L600 620" stroke="#65a30d" stroke-width="10" stroke-linecap="round" />
    <circle cx="600" cy="620" r="16" fill="#65a30d" />
  <path d="M515.1471862576143 534.8528137423857 L479.7918471982869 570.2081528017131" stroke="#65a30d" stroke-width="10" stroke-linecap="round" />
    <circle cx="479.7918471982869" cy="570.2081528017131" r="16" fill="#65a30d" />
  <path d="M480 450 L430 450" stroke="#65a30d" stroke-width="10" stroke-linecap="round" />
    <circle cx="430" cy="450" r="16" fill="#65a30d" />
  <path d="M515.1471862576143 365.1471862576143 L479.79184719828686 329.7918471982869" stroke="#65a30d" stroke-width="10" stroke-linecap="round" />
    <circle cx="479.79184719828686" cy="329.7918471982869" r="16" fill="#65a30d" />
  <path d="M600 330 L600 280" stroke="#65a30d" stroke-width="10" stroke-linecap="round" />
    <circle cx="600" cy="280" r="16" fill="#65a30d" />
  <path d="M684.8528137423857 365.1471862576143 L720.208152801713 329.79184719828686" stroke="#65a30d" stroke-width="10" stroke-linecap="round" />
    <circle cx="720.208152801713" cy="329.79184719828686" r="16" fill="#65a30d" />
  <circle cx="560" cy="420" r="18" fill="#1a2e05" opacity="0.15" />
  <circle cx="640" cy="470" r="22" fill="#1a2e05" opacity="0.15" />
  <circle cx="590" cy="490" r="14" fill="#1a2e05" opacity="0.1" />
  </g>
</svg>