<?xml version="1.0" encoding="UTF-8"?>
<svg xmlns="http://www.w3.org/2000/svg" viewBox="0 0 1200 900" role="img" aria-labelledby="voice-assistant-title">
  <title id="voice-assistant-title">voice-assistant</title>
  <defs>
    <linearGradient id="voice-assistant-bg" x1="0%" y1="0%" x2="100%" y2="100%">
      <stop offset="0%" stop-color="#eff6ff" />
      <stop offset="100%" stop-color="#e0e7ff" />
    </linearGradient>
    <linearGradient id="voice-assistant-floor" x1="0%" y1="0%" x2="0%" y2="100%">
      <stop offset="0%" stop-color="#c7d2fe" />
      <stop offset="100%" stop-color="#ffffff" />
    </linearGradient>
    <radialGradient id="voice-assistant-sun" cx="50%" cy="22%" r="58%">
      <stop offset="0%" stop-color="#ffffff" stop-opacity="0.95" />
      <stop offset="100%" stop-color="#ffffff" stop-opacity="0" />
    </radialGradient>
    <filter id="voice-assistant-shadow" x="-20%" y="-20%" width="140%" height="160%">
      <feDropShadow dx="0" dy="14" stdDeviation="18" flood-color="#0f172a" flood-opacity="0.14" />
    </filter>
    <filter id="voice-assistant-soft" x="-20%" y="-20%" width="140%" height="160%">
      <feDropShadow dx="0" dy="8" stdDeviation="10" flood-color="#ffffff" flood-opacity="0.2" />
    </filter>
  </defs>
  <rect width="1200" height="900" rx="48" fill="url(#voice-assistant-bg)" />
  <rect width="1200" height="900" rx="48" fill="url(#voice-assistant-sun)" opacity="0.72" />
  <circle cx="150" cy="132" r="94" fill="#ffffff" opacity="0.22" />
  <circle cx="1042" cy="126" r="126" fill="#ffffff" opacity="0.18" />
  <path d="M0 650 C132 614 258 604 390 618 C498 630 578 654 678 654 C796 654 886 616 1012 612 C1090 610 1148 624 1200 650 V900 H0 Z" fill="#ffffff" opacity="0.12" />
  <path d="M0 742 C180 700 358 684 540 706 S908 756 1200 736 V900 H0 Z" fill="url(#voice-assistant-floor)" opacity="0.98" />
  <path d="M0 748 C220 724 362 710 546 722 C742 734 920 746 1200 732" stroke="#ffffff" stroke-opacity="0.34" stroke-width="10" fill="none" />
  <ellipse cx="600" cy="740" rx="320" ry="54" fill="#0f172a" opacity="0.08" />
  <g filter="url(#voice-assistant-shadow)">
  <rect x="360" y="620" width="480" height="28" rx="14" fill="#94a3b8" opacity="0.35" />
  <rect x="478" y="292" width="244" height="308" rx="122" fill="#ffffff" stroke="#4f46e5" stroke-width="16" />
  <circle cx="600" cy="468" r="42" fill="#4f46e5" />
  <circle cx="600" cy="468" r="18" fill="#ffffff" opacity="0.95" />
  <path d="M438 684 C484 626 540 600 600 600 C660 600 716 626 762 684" stroke="#4f46e5" stroke-width="18" stroke-linecap="round" fill="none" />
  <path d="M476 286 C512 248 566 226 600 226 C634 226 688 248 724 286" stroke="#4f46e5" stroke-width="16" stroke-linecap="round" fill="none" opacity="0.8" />
  <path d="M446 240 C500 182 560 154 600 154 C640 154 700 182 754 240" stroke="#4f46e5" stroke-width="12" stroke-linecap="round" fill="none" opacity="0.45" />
  <rect x="530" y="540" width="140" height="18" rx="9" fill="#ffffff" opacity="0.7" />
  </g>
</svg>