<?xml version="1.0" encoding="UTF-8"?>
<svg xmlns="http://www.w3.org/2000/svg" viewBox="0 0 1200 900" role="img" aria-labelledby="you-very-drunk-title">
  <title id="you-very-drunk-title">you-very-drunk</title>
  <defs>
    <linearGradient id="you-very-drunk-bg" x1="0%" y1="0%" x2="100%" y2="100%">
      <stop offset="0%" stop-color="#eff6ff" />
      <stop offset="100%" stop-color="#dbeafe" />
    </linearGradient>
    <linearGradient id="you-very-drunk-floor" x1="0%" y1="0%" x2="0%" y2="100%">
      <stop offset="0%" stop-color="#dbeafe" />
      <stop offset="100%" stop-color="#ffffff" />
    </linearGradient>
    <radialGradient id="you-very-drunk-sun" cx="50%" cy="22%" r="58%">
      <stop offset="0%" stop-color="#ffffff" stop-opacity="0.95" />
      <stop offset="100%" stop-color="#ffffff" stop-opacity="0" />
    </radialGradient>
    <filter id="you-very-drunk-shadow" x="-20%" y="-20%" width="140%" height="160%">
      <feDropShadow dx="0" dy="14" stdDeviation="18" flood-color="#0f172a" flood-opacity="0.14" />
    </filter>
    <filter id="you-very-drunk-soft" x="-20%" y="-20%" width="140%" height="160%">
      <feDropShadow dx="0" dy="8" stdDeviation="10" flood-color="#ffffff" flood-opacity="0.2" />
    </filter>
  </defs>
  <rect width="1200" height="900" rx="48" fill="url(#you-very-drunk-bg)" />
  <rect width="1200" height="900" rx="48" fill="url(#you-very-drunk-sun)" opacity="0.72" />
  <circle cx="150" cy="132" r="94" fill="#ffffff" opacity="0.22" />
  <circle cx="1042" cy="126" r="126" fill="#ffffff" opacity="0.18" />
  <path d="M0 650 C132 614 258 604 390 618 C498 630 578 654 678 654 C796 654 886 616 1012 612 C1090 610 1148 624 1200 650 V900 H0 Z" fill="#ffffff" opacity="0.12" />
  <path d="M0 742 C180 700 358 684 540 706 S908 756 1200 736 V900 H0 Z" fill="url(#you-very-drunk-floor)" opacity="0.98" />
  <path d="M0 748 C220 724 362 710 546 722 C742 734 920 746 1200 732" stroke="#ffffff" stroke-opacity="0.34" stroke-width="10" fill="none" />
  <ellipse cx="600" cy="740" rx="320" ry="54" fill="#0f172a" opacity="0.08" />
  <g filter="url(#you-very-drunk-shadow)">
  <circle cx="582" cy="296" r="84" fill="#f2c9a5" />
  <path d="M510 268 C524 204 642 206 658 268 C632 220 610 206 584 206 C558 206 532 220 510 268 Z" fill="#0f172a" />
  <rect x="514" y="382" width="136" height="214" rx="58" fill="#2563eb" transform="rotate(-10 582 490)" />
  <path d="M512 434 L420 586" stroke="#f2c9a5" stroke-width="24" stroke-linecap="round" />
  <path d="M650 428 L760 560" stroke="#f2c9a5" stroke-width="24" stroke-linecap="round" />
  <path d="M542 586 L486 742" stroke="#0f172a" stroke-width="24" stroke-linecap="round" />
  <path d="M620 586 L680 730" stroke="#0f172a" stroke-width="24" stroke-linecap="round" />
  <rect x="742" y="444" width="56" height="154" rx="20" fill="#ef4444" transform="rotate(-20 742 444)" />
  </g>
</svg>