<?xml version="1.0" encoding="UTF-8"?>
<svg xmlns="http://www.w3.org/2000/svg" viewBox="0 0 1200 900" role="img" aria-labelledby="you-asleep-title">
  <title id="you-asleep-title">you-asleep</title>
  <defs>
    <linearGradient id="you-asleep-bg" x1="0%" y1="0%" x2="100%" y2="100%">
      <stop offset="0%" stop-color="#eff6ff" />
      <stop offset="100%" stop-color="#dbeafe" />
    </linearGradient>
    <linearGradient id="you-asleep-floor" x1="0%" y1="0%" x2="0%" y2="100%">
      <stop offset="0%" stop-color="#dbeafe" />
      <stop offset="100%" stop-color="#ffffff" />
    </linearGradient>
    <radialGradient id="you-asleep-sun" cx="50%" cy="22%" r="58%">
      <stop offset="0%" stop-color="#ffffff" stop-opacity="0.95" />
      <stop offset="100%" stop-color="#ffffff" stop-opacity="0" />
    </radialGradient>
    <filter id="you-asleep-shadow" x="-20%" y="-20%" width="140%" height="160%">
      <feDropShadow dx="0" dy="14" stdDeviation="18" flood-color="#0f172a" flood-opacity="0.14" />
    </filter>
    <filter id="you-asleep-soft" x="-20%" y="-20%" width="140%" height="160%">
      <feDropShadow dx="0" dy="8" stdDeviation="10" flood-color="#ffffff" flood-opacity="0.2" />
    </filter>
  </defs>
  <rect width="1200" height="900" rx="48" fill="url(#you-asleep-bg)" />
  <rect width="1200" height="900" rx="48" fill="url(#you-asleep-sun)" opacity="0.72" />
  <circle cx="150" cy="132" r="94" fill="#ffffff" opacity="0.22" />
  <circle cx="1042" cy="126" r="126" fill="#ffffff" opacity="0.18" />
  <path d="M0 650 C132 614 258 604 390 618 C498 630 578 654 678 654 C796 654 886 616 1012 612 C1090 610 1148 624 1200 650 V900 H0 Z" fill="#ffffff" opacity="0.12" />
  <path d="M0 742 C180 700 358 684 540 706 S908 756 1200 736 V900 H0 Z" fill="url(#you-asleep-floor)" opacity="0.98" />
  <path d="M0 748 C220 724 362 710 546 722 C742 734 920 746 1200 732" stroke="#ffffff" stroke-opacity="0.34" stroke-width="10" fill="none" />
  <ellipse cx="600" cy="740" rx="320" ry="54" fill="#0f172a" opacity="0.08" />
  <g filter="url(#you-asleep-shadow)">
  <rect x="214" y="520" width="772" height="132" rx="34" fill="#ffffff" stroke="#2563eb" stroke-width="10" />
  <rect x="256" y="558" width="688" height="58" rx="28" fill="#2563eb" opacity="0.22" />
  <circle cx="408" cy="476" r="62" fill="#f2c9a5" />
  <path d="M352 450 C364 398 454 398 466 450 C452 420 430 406 408 406 C386 406 364 420 352 450 Z" fill="#0f172a" />
  <path d="M478 514 C536 482 676 484 756 542" stroke="#2563eb" stroke-width="22" stroke-linecap="round" fill="none" />
  <circle cx="862" cy="234" r="52" fill="#2563eb" opacity="0.16" />
  <path d="M856 188 C836 218 836 252 856 280 C812 274 782 236 782 188 C782 140 812 104 856 96 C836 124 836 158 856 188 Z" fill="#2563eb" />
  <text x="764" y="324" font-family="Arial, Helvetica, sans-serif" font-size="74" font-weight="700" fill="#2563eb">Z</text>
  <text x="828" y="274" font-family="Arial, Helvetica, sans-serif" font-size="46" font-weight="700" fill="#2563eb" opacity="0.75">Z</text>
  </g>
</svg>