<?xml version="1.0" encoding="UTF-8"?>
<svg xmlns="http://www.w3.org/2000/svg" viewBox="0 0 1200 900" role="img" aria-labelledby="you-dreaming-title">
  <title id="you-dreaming-title">you-dreaming</title>
  <defs>
    <linearGradient id="you-dreaming-bg" x1="0%" y1="0%" x2="100%" y2="100%">
      <stop offset="0%" stop-color="#eff6ff" />
      <stop offset="100%" stop-color="#dbeafe" />
    </linearGradient>
    <linearGradient id="you-dreaming-floor" x1="0%" y1="0%" x2="0%" y2="100%">
      <stop offset="0%" stop-color="#dbeafe" />
      <stop offset="100%" stop-color="#ffffff" />
    </linearGradient>
    <radialGradient id="you-dreaming-sun" cx="50%" cy="22%" r="58%">
      <stop offset="0%" stop-color="#ffffff" stop-opacity="0.95" />
      <stop offset="100%" stop-color="#ffffff" stop-opacity="0" />
    </radialGradient>
    <filter id="you-dreaming-shadow" x="-20%" y="-20%" width="140%" height="160%">
      <feDropShadow dx="0" dy="14" stdDeviation="18" flood-color="#0f172a" flood-opacity="0.14" />
    </filter>
    <filter id="you-dreaming-soft" x="-20%" y="-20%" width="140%" height="160%">
      <feDropShadow dx="0" dy="8" stdDeviation="10" flood-color="#ffffff" flood-opacity="0.2" />
    </filter>
  </defs>
  <rect width="1200" height="900" rx="48" fill="url(#you-dreaming-bg)" />
  <rect width="1200" height="900" rx="48" fill="url(#you-dreaming-sun)" opacity="0.72" />
  <circle cx="150" cy="132" r="94" fill="#ffffff" opacity="0.22" />
  <circle cx="1042" cy="126" r="126" fill="#ffffff" opacity="0.18" />
  <path d="M0 650 C132 614 258 604 390 618 C498 630 578 654 678 654 C796 654 886 616 1012 612 C1090 610 1148 624 1200 650 V900 H0 Z" fill="#ffffff" opacity="0.12" />
  <path d="M0 742 C180 700 358 684 540 706 S908 756 1200 736 V900 H0 Z" fill="url(#you-dreaming-floor)" opacity="0.98" />
  <path d="M0 748 C220 724 362 710 546 722 C742 734 920 746 1200 732" stroke="#ffffff" stroke-opacity="0.34" stroke-width="10" fill="none" />
  <ellipse cx="600" cy="740" rx="320" ry="54" fill="#0f172a" opacity="0.08" />
  <g filter="url(#you-dreaming-shadow)">
  <rect x="214" y="520" width="772" height="132" rx="34" fill="#ffffff" stroke="#2563eb" stroke-width="10" />
  <rect x="256" y="558" width="688" height="58" rx="28" fill="#2563eb" opacity="0.18" />
  <circle cx="408" cy="476" r="62" fill="#f2c9a5" />
  <path d="M352 450 C364 398 454 398 466 450 C452 420 430 406 408 406 C386 406 364 420 352 450 Z" fill="#0f172a" />
  <path d="M680 236 C728 176 852 180 902 242 C948 298 924 382 852 392 C822 446 724 448 680 394 C628 330 632 282 680 236 Z" fill="#ffffff" opacity="0.96" />
  <path d="M786 224 L806 272 L856 278 L818 312 L828 362 L786 336 L744 362 L754 312 L716 278 L766 272 Z" fill="#2563eb" />
  <circle cx="852" cy="250" r="18" fill="#2563eb" opacity="0.45" />
  </g>
</svg>