<?xml version="1.0" encoding="UTF-8"?>
<svg xmlns="http://www.w3.org/2000/svg" viewBox="0 0 1200 900" role="img" aria-labelledby="you-under-anesthesia-title">
  <title id="you-under-anesthesia-title">you-under-anesthesia</title>
  <defs>
    <linearGradient id="you-under-anesthesia-bg" x1="0%" y1="0%" x2="100%" y2="100%">
      <stop offset="0%" stop-color="#eff6ff" />
      <stop offset="100%" stop-color="#dbeafe" />
    </linearGradient>
    <linearGradient id="you-under-anesthesia-floor" x1="0%" y1="0%" x2="0%" y2="100%">
      <stop offset="0%" stop-color="#dbeafe" />
      <stop offset="100%" stop-color="#ffffff" />
    </linearGradient>
    <radialGradient id="you-under-anesthesia-sun" cx="50%" cy="22%" r="58%">
      <stop offset="0%" stop-color="#ffffff" stop-opacity="0.95" />
      <stop offset="100%" stop-color="#ffffff" stop-opacity="0" />
    </radialGradient>
    <filter id="you-under-anesthesia-shadow" x="-20%" y="-20%" width="140%" height="160%">
      <feDropShadow dx="0" dy="14" stdDeviation="18" flood-color="#0f172a" flood-opacity="0.14" />
    </filter>
    <filter id="you-under-anesthesia-soft" x="-20%" y="-20%" width="140%" height="160%">
      <feDropShadow dx="0" dy="8" stdDeviation="10" flood-color="#ffffff" flood-opacity="0.2" />
    </filter>
  </defs>
  <rect width="1200" height="900" rx="48" fill="url(#you-under-anesthesia-bg)" />
  <rect width="1200" height="900" rx="48" fill="url(#you-under-anesthesia-sun)" opacity="0.72" />
  <circle cx="150" cy="132" r="94" fill="#ffffff" opacity="0.22" />
  <circle cx="1042" cy="126" r="126" fill="#ffffff" opacity="0.18" />
  <path d="M0 650 C132 614 258 604 390 618 C498 630 578 654 678 654 C796 654 886 616 1012 612 C1090 610 1148 624 1200 650 V900 H0 Z" fill="#ffffff" opacity="0.12" />
  <path d="M0 742 C180 700 358 684 540 706 S908 756 1200 736 V900 H0 Z" fill="url(#you-under-anesthesia-floor)" opacity="0.98" />
  <path d="M0 748 C220 724 362 710 546 722 C742 734 920 746 1200 732" stroke="#ffffff" stroke-opacity="0.34" stroke-width="10" fill="none" />
  <ellipse cx="600" cy="740" rx="320" ry="54" fill="#0f172a" opacity="0.08" />
  <g filter="url(#you-under-anesthesia-shadow)">
  <rect x="208" y="514" width="782" height="136" rx="34" fill="#ffffff" stroke="#2563eb" stroke-width="10" />
  <rect x="252" y="558" width="698" height="56" rx="28" fill="#2563eb" opacity="0.18" />
  <circle cx="390" cy="474" r="66" fill="#f2c9a5" />
  <path d="M334 448 C348 392 434 392 446 448 C432 418 412 404 390 404 C368 404 346 418 334 448 Z" fill="#0f172a" />
  <rect x="806" y="206" width="72" height="180" rx="26" fill="#ffffff" stroke="#2563eb" stroke-width="10" />
  <path d="M842 386 C844 470 780 526 716 560" stroke="#2563eb" stroke-width="12" fill="none" stroke-linecap="round" />
  <path d="M440 514 C520 478 640 478 742 534" stroke="#ffffff" stroke-width="18" stroke-linecap="round" fill="none" />
  </g>
</svg>