<?xml version="1.0" encoding="UTF-8"?>
<svg xmlns="http://www.w3.org/2000/svg" viewBox="0 0 1200 900" role="img" aria-labelledby="you-title">
  <title id="you-title">you</title>
  <defs>
    <linearGradient id="you-bg" x1="0%" y1="0%" x2="100%" y2="100%">
      <stop offset="0%" stop-color="#eff6ff" />
      <stop offset="100%" stop-color="#dbeafe" />
    </linearGradient>
    <linearGradient id="you-floor" x1="0%" y1="0%" x2="0%" y2="100%">
      <stop offset="0%" stop-color="#dbeafe" />
      <stop offset="100%" stop-color="#ffffff" />
    </linearGradient>
    <radialGradient id="you-sun" cx="50%" cy="22%" r="58%">
      <stop offset="0%" stop-color="#ffffff" stop-opacity="0.95" />
      <stop offset="100%" stop-color="#ffffff" stop-opacity="0" />
    </radialGradient>
    <filter id="you-shadow" x="-20%" y="-20%" width="140%" height="160%">
      <feDropShadow dx="0" dy="14" stdDeviation="18" flood-color="#0f172a" flood-opacity="0.14" />
    </filter>
    <filter id="you-soft" x="-20%" y="-20%" width="140%" height="160%">
      <feDropShadow dx="0" dy="8" stdDeviation="10" flood-color="#ffffff" flood-opacity="0.2" />
    </filter>
  </defs>
  <rect width="1200" height="900" rx="48" fill="url(#you-bg)" />
  <rect width="1200" height="900" rx="48" fill="url(#you-sun)" opacity="0.72" />
  <circle cx="150" cy="132" r="94" fill="#ffffff" opacity="0.22" />
  <circle cx="1042" cy="126" r="126" fill="#ffffff" opacity="0.18" />
  <path d="M0 650 C132 614 258 604 390 618 C498 630 578 654 678 654 C796 654 886 616 1012 612 C1090 610 1148 624 1200 650 V900 H0 Z" fill="#ffffff" opacity="0.12" />
  <path d="M0 742 C180 700 358 684 540 706 S908 756 1200 736 V900 H0 Z" fill="url(#you-floor)" opacity="0.98" />
  <path d="M0 748 C220 724 362 710 546 722 C742 734 920 746 1200 732" stroke="#ffffff" stroke-opacity="0.34" stroke-width="10" fill="none" />
  <ellipse cx="600" cy="740" rx="320" ry="54" fill="#0f172a" opacity="0.08" />
  <g filter="url(#you-shadow)">
  <circle cx="600" cy="272" r="86" fill="#f2c9a5" />
  <path d="M520 250 C540 182 660 182 680 250 C658 214 624 196 600 196 C576 196 542 214 520 250 Z" fill="#0f172a" />
  <rect x="530" y="360" width="140" height="232" rx="56" fill="#2563eb" />
  <path d="M530 414 L432 566" stroke="#f2c9a5" stroke-width="24" stroke-linecap="round" />
  <path d="M670 414 L768 566" stroke="#f2c9a5" stroke-width="24" stroke-linecap="round" />
  <path d="M566 590 L530 742" stroke="#0f172a" stroke-width="24" stroke-linecap="round" />
  <path d="M634 590 L670 742" stroke="#0f172a" stroke-width="24" stroke-linecap="round" />
  <rect x="516" y="372" width="168" height="36" rx="18" fill="#ffffff" opacity="0.18" />
  </g>
</svg>